<svg width="106" height="41" viewBox="0 0 106 41" fill="none" xmlns="http://www.w3.org/2000/svg">
<path d="M3.95325 6.97363V27.6617H1.21094V6.97363H3.95325Z" fill="#0B83D9"/>
<path d="M24.8545 6.97363V27.6617H22.098L11.6829 11.7052V27.6617H8.94055V6.97363H11.6829L22.1406 22.9728V6.97363H24.8545Z" fill="#0B83D9"/>
<path d="M40.74 22.4329C40.74 21.9498 40.6642 21.5235 40.5126 21.1541C40.3705 20.7752 40.1148 20.4342 39.7453 20.131C39.3854 19.8279 38.8833 19.539 38.2392 19.2643C37.6045 18.9896 36.7994 18.7101 35.8237 18.426C34.8007 18.1228 33.8771 17.7866 33.053 17.4171C32.2289 17.0382 31.5232 16.6072 30.9359 16.1241C30.3486 15.641 29.8986 15.0869 29.586 14.4617C29.2734 13.8365 29.1171 13.1213 29.1171 12.3162C29.1171 11.511 29.2829 10.7674 29.6144 10.0854C29.946 9.40334 30.4196 8.81131 31.0353 8.30926C31.6605 7.79774 32.4041 7.3999 33.2661 7.11572C34.1281 6.83154 35.0896 6.68945 36.1505 6.68945C37.704 6.68945 39.0207 6.98784 40.1006 7.58461C41.1899 8.17191 42.0188 8.94392 42.5871 9.90065C43.1555 10.8479 43.4397 11.8615 43.4397 12.9413H40.7116C40.7116 12.1646 40.5458 11.4778 40.2142 10.8811C39.8827 10.2748 39.3807 9.80119 38.7081 9.46018C38.0355 9.10969 37.183 8.93445 36.1505 8.93445C35.1748 8.93445 34.3697 9.08128 33.735 9.37493C33.1003 9.66858 32.6267 10.0664 32.3141 10.5685C32.011 11.0705 31.8594 11.6436 31.8594 12.2877C31.8594 12.7235 31.9494 13.1213 32.1294 13.4813C32.3189 13.8318 32.6078 14.1586 32.9961 14.4617C33.394 14.7648 33.896 15.0443 34.5023 15.3C35.118 15.5558 35.8521 15.8021 36.7047 16.0389C37.8793 16.3704 38.8928 16.7398 39.7453 17.1472C40.5979 17.5545 41.2988 18.0139 41.8483 18.5254C42.4071 19.0275 42.8192 19.6006 43.0844 20.2447C43.3591 20.8794 43.4965 21.5993 43.4965 22.4044C43.4965 23.2475 43.326 24.01 42.985 24.6921C42.644 25.3741 42.1561 25.9567 41.5215 26.4398C40.8868 26.9229 40.1243 27.297 39.2338 27.5623C38.3529 27.818 37.3677 27.9459 36.2784 27.9459C35.3217 27.9459 34.3791 27.8133 33.4508 27.5481C32.532 27.2828 31.6937 26.885 30.9359 26.3545C30.1875 25.824 29.586 25.1704 29.1313 24.3937C28.6861 23.6075 28.4635 22.6981 28.4635 21.6656H31.1916C31.1916 22.376 31.329 22.987 31.6037 23.4985C31.8784 24.0006 32.2525 24.4174 32.7262 24.7489C33.2093 25.0804 33.7539 25.3267 34.3602 25.4878C34.9759 25.6393 35.6153 25.7151 36.2784 25.7151C37.2351 25.7151 38.045 25.5825 38.7081 25.3173C39.3712 25.052 39.8732 24.6731 40.2142 24.1806C40.5647 23.688 40.74 23.1054 40.74 22.4329Z" fill="#0B83D9"/>
<path d="M54.622 19.5485H49.0948V17.3177H54.622C55.6924 17.3177 56.5592 17.1472 57.2222 16.8062C57.8853 16.4651 58.3684 15.9915 58.6715 15.3853C58.9841 14.779 59.1404 14.0875 59.1404 13.3108C59.1404 12.6003 58.9841 11.9325 58.6715 11.3073C58.3684 10.6821 57.8853 10.1801 57.2222 9.80119C56.5592 9.41282 55.6924 9.21863 54.622 9.21863L50.9688 9.37493V25.7151V34.7346L49.9584 40.1908L49.7342 40.9991L45.7146 28.47V6.68945L54.622 6.97363C56.185 6.97363 57.5064 7.2436 58.5863 7.78353C59.6662 8.32347 60.4855 9.0718 61.0444 10.0285C61.6033 10.9758 61.8827 12.0604 61.8827 13.2824C61.8827 14.6085 61.6033 15.7405 61.0444 16.6783C60.4855 17.6161 59.6662 18.3312 58.5863 18.8238C57.5064 19.3069 56.185 19.5485 54.622 19.5485Z" fill="#0B83D9"/>
<path d="M68.2909 6.97363V27.6617H65.5486V6.97363H68.2909Z" fill="#0B83D9"/>
<path d="M73.2782 6.97363H80.1269C81.6804 6.97363 82.9924 7.21044 84.0628 7.68407C85.1426 8.1577 85.962 8.85867 86.5209 9.78698C87.0892 10.7058 87.3734 11.8378 87.3734 13.1829C87.3734 14.1302 87.1792 14.9969 86.7909 15.7831C86.412 16.5599 85.8626 17.223 85.1426 17.7724C84.4322 18.3123 83.5797 18.7149 82.585 18.9801L81.8178 19.2785H75.3812L75.3527 17.0477H80.2122C81.1973 17.0477 82.0167 16.8772 82.6703 16.5362C83.3239 16.1857 83.8165 15.7168 84.148 15.1295C84.4796 14.5422 84.6453 13.8933 84.6453 13.1829C84.6453 12.3872 84.489 11.691 84.1764 11.0942C83.8638 10.4974 83.3713 10.038 82.6987 9.71594C82.0356 9.3844 81.1784 9.21863 80.1269 9.21863H76.0206V27.6617H73.2782V6.97363ZM85.37 27.6617L80.34 18.2839L83.196 18.2697L88.297 27.4912V27.6617H85.37Z" fill="#0B83D9"/>
<path d="M104.353 25.4309V27.6617H93.398V25.4309H104.353ZM93.9521 6.97363V27.6617H91.2098V6.97363H93.9521ZM102.904 15.8684V18.0992H93.398V15.8684H102.904ZM104.211 6.97363V9.21863H93.398V6.97363H104.211Z" fill="#0B83D9"/>
<path fill-rule="evenodd" clip-rule="evenodd" d="M5.16729 5.76269V28.8758H0V5.76269H5.16729ZM26.0685 5.76269V28.8758H21.443L12.8969 15.7826V28.8758H7.72962V5.76269H12.3404L20.9296 18.9033V5.76269H26.0685ZM22.1421 22.9744L11.6844 6.97518H8.94211V27.6633H11.6844V11.7067L22.0995 27.6633H24.856V6.97518H22.1421V22.9744ZM39.3854 21.5987L39.3789 21.5814C39.3243 21.4357 39.2123 21.2623 38.9778 21.0699L38.9718 21.065L38.9659 21.06C38.7309 20.8621 38.3471 20.6293 37.7651 20.3811L37.7621 20.3799L37.7591 20.3786C37.1869 20.1309 36.4336 19.8676 35.4862 19.5916L35.4808 19.5901C34.4151 19.2743 33.4397 18.9201 32.5586 18.5251L32.5533 18.5227L32.548 18.5203C31.6469 18.106 30.8486 17.6226 30.1672 17.0621C29.4603 16.4807 28.8981 15.7956 28.5031 15.0055C28.0944 14.1881 27.9062 13.2825 27.9062 12.3177C27.9062 11.3405 28.1088 10.4142 28.5255 9.55683C28.9376 8.70908 29.5246 7.9796 30.2699 7.37176C31.0234 6.75537 31.9024 6.29069 32.888 5.96574C33.8912 5.63502 34.9834 5.47852 36.1521 5.47852C37.856 5.47852 39.384 5.8055 40.683 6.52185C41.9401 7.20068 42.938 8.11722 43.6298 9.28074C44.3075 10.4112 44.6537 11.6389 44.6537 12.9429V14.1554H39.5006V12.9429C39.5006 12.3434 39.3742 11.8645 39.1559 11.4715L39.1539 11.4679L39.152 11.4644C38.9486 11.0926 38.6364 10.784 38.1613 10.5432L38.1553 10.5401L38.1493 10.537C37.7008 10.3033 37.0566 10.1485 36.1521 10.1485C35.2872 10.1485 34.6707 10.2802 34.2457 10.4769C33.7896 10.6879 33.516 10.9394 33.3492 11.204C33.1741 11.4972 33.0735 11.8473 33.0735 12.2893C33.0735 12.5441 33.1231 12.7489 33.2068 12.9231C33.3012 13.0912 33.4639 13.2881 33.7381 13.5031C34.033 13.7268 34.437 13.9572 34.9721 14.1831C35.5294 14.4144 36.2131 14.6451 37.0307 14.8722L37.0356 14.8735C38.2585 15.2187 39.3399 15.6105 40.2696 16.0547C41.2021 16.5002 42.0103 17.0216 42.6681 17.6322C43.3449 18.2421 43.8644 18.9567 44.203 19.7745C44.5505 20.5815 44.7105 21.4659 44.7105 22.406C44.7105 23.4171 44.5048 24.3683 44.071 25.2359C43.6433 26.0913 43.0325 26.8161 42.2574 27.4061C41.4888 27.9911 40.5895 28.4256 39.5815 28.7258L39.5775 28.727L39.5734 28.7282C38.5643 29.0212 37.4629 29.1599 36.2799 29.1599C35.2095 29.1599 34.1549 29.0113 33.1193 28.7154L33.1161 28.7145C32.0734 28.4135 31.113 27.959 30.2421 27.3494L30.2392 27.3473L30.2362 27.3452C29.3501 26.7171 28.6299 25.9361 28.0865 25.0078L28.0821 25.0003L28.0778 24.9927C27.5154 23.9996 27.2526 22.8787 27.2526 21.6671V20.4546H32.4057V21.6671C32.4057 22.2191 32.5114 22.6228 32.6712 22.9223C32.8544 23.2555 33.0996 23.5298 33.4186 23.754C33.7759 23.9984 34.1872 24.1872 34.6625 24.3146C35.1758 24.4401 35.7141 24.5042 36.2799 24.5042C37.1318 24.5042 37.7791 24.3851 38.2593 24.193C38.7446 23.999 39.0376 23.7538 39.2189 23.4919L39.2233 23.4855L39.2279 23.4792C39.416 23.2148 39.529 22.8846 39.529 22.4344C39.529 22.0769 39.4729 21.812 39.3924 21.6158L39.3854 21.5987ZM34.3617 25.4893C33.7555 25.3283 33.2108 25.082 32.7277 24.7505C32.2541 24.4189 31.8799 24.0021 31.6052 23.5001C31.3305 22.9886 31.1932 22.3776 31.1932 21.6671H28.4651C28.4651 22.0922 28.5028 22.4963 28.5782 22.8796C28.6861 23.4275 28.8709 23.9327 29.1329 24.3952C29.5876 25.172 30.1891 25.8256 30.9374 26.3561C31.6952 26.8865 32.5335 27.2844 33.4524 27.5496C34.3807 27.8148 35.3232 27.9474 36.2799 27.9474C37.3693 27.9474 38.3544 27.8196 39.2354 27.5638C40.1258 27.2986 40.8883 26.9244 41.523 26.4413C42.1577 25.9582 42.6455 25.3756 42.9865 24.6936C43.3275 24.0116 43.498 23.2491 43.498 22.406C43.498 21.6008 43.3607 20.8809 43.086 20.2463C42.8207 19.6021 42.4087 19.029 41.8498 18.527C41.3004 18.0155 40.5994 17.556 39.7469 17.1487C38.8944 16.7414 37.8808 16.372 36.7062 16.0404C35.8537 15.8036 35.1195 15.5573 34.5038 15.3016C33.8976 15.0458 33.3955 14.7664 32.9977 14.4632C32.6093 14.1601 32.3204 13.8333 32.131 13.4828C31.951 13.1229 31.861 12.725 31.861 12.2893C31.861 11.6452 32.0125 11.0721 32.3157 10.57C32.6283 10.068 33.1019 9.67013 33.7366 9.37648C34.3712 9.08283 35.1764 8.936 36.1521 8.936C37.1846 8.936 38.0371 9.11125 38.7097 9.46173C39.3822 9.80274 39.8843 10.2764 40.2158 10.8826C40.5473 11.4794 40.7131 12.1661 40.7131 12.9429H43.4412C43.4412 12.529 43.3995 12.1248 43.316 11.7304C43.1816 11.0958 42.9392 10.4864 42.5887 9.90221C42.0203 8.94548 41.1915 8.17346 40.1021 7.58616C39.0222 6.98939 37.7056 6.691 36.1521 6.691C35.0911 6.691 34.1297 6.83309 33.2677 7.11727C32.4057 7.40145 31.6621 7.7993 31.0369 8.31081C30.4212 8.81286 29.9475 9.4049 29.616 10.0869C29.2844 10.7689 29.1187 11.5125 29.1187 12.3177C29.1187 13.1229 29.275 13.8381 29.5876 14.4632C29.9002 15.0884 30.3501 15.6426 30.9374 16.1257C31.5247 16.6088 32.2304 17.0398 33.0545 17.4187C33.8786 17.7881 34.8022 18.1244 35.8253 18.4275C36.8009 18.7117 37.6061 18.9911 38.2408 19.2658C38.8849 19.5405 39.3869 19.8295 39.7469 20.1326C40.1163 20.4357 40.3721 20.7767 40.5142 21.1556C40.6657 21.525 40.7415 21.9513 40.7415 22.4344C40.7415 23.107 40.5663 23.6895 40.2158 24.1821C39.8748 24.6747 39.3727 25.0536 38.7097 25.3188C38.0466 25.584 37.2367 25.7167 36.2799 25.7167C35.6169 25.7167 34.9775 25.6409 34.3617 25.4893ZM49.7357 27.6633H46.9934V6.97518H54.6236C56.1865 6.97518 57.508 7.24515 58.5878 7.78509C59.6677 8.32502 60.4871 9.07336 61.046 10.0301C61.6049 10.9773 61.8843 12.062 61.8843 13.2839C61.8843 14.6101 61.6049 15.742 61.046 16.6798C60.4871 17.6176 59.6677 18.3328 58.5878 18.8254C57.508 19.3085 56.1865 19.55 54.6236 19.55H49.7357V27.6633ZM54.6236 17.3192C55.694 17.3192 56.5607 17.1487 57.2238 16.8077C57.8869 16.4667 58.37 15.9931 58.6731 15.3868C58.9857 14.7806 59.142 14.0891 59.142 13.3123C59.142 12.6019 58.9857 11.9341 58.6731 11.3089C58.37 10.6837 57.8869 10.1816 57.2238 9.80274C56.5607 9.41437 55.694 9.22018 54.6236 9.22018H49.7357V17.3192H54.6236ZM50.9482 16.1067H54.6236C55.5795 16.1067 56.236 15.9523 56.6693 15.7295C57.1274 15.4939 57.4123 15.1972 57.5886 14.8446L57.592 14.8378L57.5954 14.8312C57.8078 14.4193 57.9295 13.9228 57.9295 13.3123C57.9295 12.7869 57.8156 12.3051 57.5886 11.8511L57.5853 11.8445L57.5821 11.8379C57.3961 11.4543 57.0951 11.1257 56.6222 10.8555L56.6166 10.8523L56.611 10.849C56.1928 10.6041 55.5592 10.4327 54.6236 10.4327H50.9482V16.1067ZM50.9482 20.7625V28.8758H45.7809V5.76269H54.6236C56.3212 5.76269 57.8397 6.05543 59.1301 6.7006C60.4003 7.33573 61.4038 8.23953 62.092 9.41701C62.7717 10.5703 63.0968 11.8712 63.0968 13.2839C63.0968 14.7817 62.7801 16.1385 62.0875 17.3006C61.3913 18.4687 60.3747 19.343 59.091 19.9285L59.087 19.9303L59.083 19.9321C57.8059 20.5035 56.305 20.7625 54.6236 20.7625H50.9482ZM69.505 5.76269V28.8758H64.3377V5.76269H69.505ZM72.0673 5.76269H80.1285C81.7977 5.76269 83.287 6.01614 84.5533 6.57611C85.8382 7.14008 86.8581 7.99832 87.5573 9.15672C88.2675 10.3078 88.5875 11.6716 88.5875 13.1845C88.5875 14.3016 88.3573 15.3532 87.8809 16.3188C87.4153 17.2723 86.7416 18.0801 85.8798 18.7378L85.8778 18.7393C85.6372 18.9221 85.385 19.0904 85.1216 19.2445L89.511 27.1798V28.8758H84.646L80.1495 20.4925H77.2346V28.8758H72.0673V5.76269ZM76.0221 19.28H80.8751L85.3715 27.6633H88.2986V27.4928L83.4389 18.7076C83.8304 18.5582 84.1956 18.3834 84.5345 18.1831C84.7482 18.0568 84.9514 17.9204 85.1442 17.7739C85.8641 17.2245 86.4135 16.5614 86.7924 15.7847C87.1808 14.9984 87.375 14.1317 87.375 13.1845C87.375 11.8393 87.0908 10.7074 86.5224 9.78853C85.9636 8.86022 85.1442 8.15925 84.0643 7.68562C82.9939 7.212 81.682 6.97518 80.1285 6.97518H73.2798V27.6633H76.0221V19.28ZM76.0221 17.0493H80.2137C81.1989 17.0493 82.0182 16.8788 82.6718 16.5377C83.3255 16.1873 83.818 15.7184 84.1496 15.1311C84.4811 14.5438 84.6469 13.8949 84.6469 13.1845C84.6469 12.3888 84.4906 11.6925 84.178 11.0957C83.8654 10.499 83.3728 10.0396 82.7003 9.71749C82.0372 9.38595 81.1799 9.22018 80.1285 9.22018H76.0221V17.0493ZM77.2346 10.4327V15.8368H80.2137C81.0626 15.8368 81.6732 15.6896 82.1051 15.4658C82.5737 15.2133 82.8871 14.9009 83.0937 14.535C83.317 14.1394 83.4344 13.6976 83.4344 13.1845C83.4344 12.5493 83.3105 12.0527 83.1039 11.6584C82.9257 11.3181 82.6398 11.0329 82.1766 10.8111L82.1673 10.8066L82.158 10.802C81.7187 10.5823 81.0653 10.4327 80.1285 10.4327H77.2346ZM105.567 24.22V28.8758H89.9989V5.76269H105.425V10.4327H95.1662V14.6574H104.118V19.3132H95.1662V24.22H105.567ZM93.9537 25.4325H104.355V27.6633H91.2114V6.97518H104.212V9.22018H93.9537V15.8699H102.905V18.1007H93.9537V25.4325ZM3.9548 6.97518H1.21249V27.6633H3.9548V6.97518ZM68.2925 6.97518H65.5502V27.6633H68.2925V6.97518Z" fill="#0B83D9"/>
<line x1="46.0658" y1="2.19965" x2="105.478" y2="1.78707" stroke="#0B83D9" stroke-width="2.42498"/>
</svg>
