<svg width="374" height="342" viewBox="0 0 374 342" fill="none" xmlns="http://www.w3.org/2000/svg">
<rect width="372" height="126" transform="translate(0 152.738)" fill="#73C5FF"/>
<path d="M265.717 341.458C294.853 341.458 318.473 337.903 318.473 333.516C318.473 329.13 294.853 325.574 265.717 325.574C236.581 325.574 212.961 329.13 212.961 333.516C212.961 337.903 236.581 341.458 265.717 341.458Z" fill="#0B83D9"/>
<path opacity="0.5" d="M265.717 341.458C294.853 341.458 318.473 337.903 318.473 333.516C318.473 329.13 294.853 325.574 265.717 325.574C236.581 325.574 212.961 329.13 212.961 333.516C212.961 337.903 236.581 341.458 265.717 341.458Z" fill="#F7F8FA"/>
<path d="M104.907 329.908C126.81 329.908 144.567 326.352 144.567 321.965C144.567 317.579 126.81 314.023 104.907 314.023C83.0027 314.023 65.2461 317.579 65.2461 321.965C65.2461 326.352 83.0027 329.908 104.907 329.908Z" fill="#0B83D9"/>
<path opacity="0.5" d="M104.907 329.908C126.81 329.908 144.567 326.352 144.567 321.965C144.567 317.579 126.81 314.023 104.907 314.023C83.0027 314.023 65.2461 317.579 65.2461 321.965C65.2461 326.352 83.0027 329.908 104.907 329.908Z" fill="#F7F8FA"/>
<path d="M85.6244 301.338L105.819 292.996C104.409 290.701 102.999 291.787 101.195 288.073C100.236 286.168 101.08 283.102 99.8711 280.645C98.9117 278.636 95.9281 277.359 94.7769 275.055C93.7311 272.979 94.489 269.884 93.357 267.646C92.2249 265.408 89.318 264.304 88.186 262.123C87.0539 259.942 87.7926 256.876 86.651 254.733C85.5093 252.591 82.5257 251.41 81.384 249.296C80.2424 247.182 80.8468 244.011 79.6763 241.944C78.5059 239.878 75.4263 238.678 74.2463 236.687C72.9223 234.459 73.4116 231.307 72.1932 229.412C70.7062 227.108 67.6074 226.27 66.3506 224.651C63.9906 221.603 62.7242 218.251 61.5538 218.48C60.3833 218.708 61.4003 222.079 62.043 226.098C62.3692 228.098 60.8534 230.859 61.525 233.535C62.0622 235.688 64.7101 237.478 65.4392 239.935C66.082 242.135 64.7964 245.039 65.5543 247.41C66.3123 249.781 68.9793 251.295 69.7564 253.61C70.5335 255.924 69.3151 258.809 70.1018 261.085C70.8885 263.361 73.6515 264.951 74.4477 267.189C75.244 269.427 74.1215 272.446 74.9274 274.655C75.7333 276.864 78.5635 278.54 79.3597 280.702C80.252 283.092 79.1487 286.063 79.9353 288.149C80.8947 290.682 83.7057 292.225 84.4444 294.139C86.0466 298.319 83.792 298.243 85.116 301.595L85.6244 301.338Z" fill="#2E353A"/>
<path d="M63.875 225.232L93.9034 296.835" stroke="#F7F8FA" stroke-width="0.196895" stroke-miterlimit="10"/>
<path d="M70.1783 231.439L68.0676 235.61L63.8848 233.163" stroke="#F7F8FA" stroke-width="0.196895" stroke-miterlimit="10"/>
<path d="M75.3972 243.896L73.2961 248.077L69.1133 245.63" stroke="#F7F8FA" stroke-width="0.196895" stroke-miterlimit="10"/>
<path d="M80.3189 255.619L78.2179 259.8L74.0254 257.352" stroke="#F7F8FA" stroke-width="0.196895" stroke-miterlimit="10"/>
<path d="M86.1724 269.561L84.0618 273.741L79.8789 271.294" stroke="#F7F8FA" stroke-width="0.196895" stroke-miterlimit="10"/>
<path d="M92.0808 283.654L89.9797 287.835L85.7969 285.387" stroke="#F7F8FA" stroke-width="0.196895" stroke-miterlimit="10"/>
<path d="M83.341 295.805L116.286 294.767C115.528 290.786 112.966 291.567 112.448 285.387C112.18 282.263 114.962 278.311 114.578 274.216C114.262 270.845 110.798 267.493 110.415 263.637C110.069 260.161 112.803 256.199 112.41 252.447C112.026 248.905 108.515 245.6 108.102 241.925C107.69 238.249 110.367 234.306 109.925 230.697C109.484 227.088 105.905 223.831 105.426 220.222C104.946 216.613 107.517 212.49 106.98 208.966C106.424 205.233 102.759 202.1 102.183 198.662C101.521 194.853 103.91 190.644 103.21 187.349C102.356 183.302 98.4128 180.474 97.5493 177.503C95.88 171.96 95.8896 166.561 94.1148 166.266C92.3399 165.971 91.9562 171.246 90.7186 177.198C90.095 180.188 86.459 183.312 85.9793 187.406C85.586 190.72 88.3489 194.644 88.0419 198.481C87.7637 201.929 84.3963 205.338 84.2045 209.071C84.003 212.594 86.9483 216.375 86.7852 220.051C86.6221 223.726 83.3698 227.126 83.2547 230.754C83.1396 234.383 86.1328 238.077 86.0848 241.658C86.0369 245.239 82.7942 248.895 82.7366 252.428C82.6791 256.161 85.7682 259.827 85.7299 263.294C85.7299 267.103 82.5447 270.741 82.5352 274.102C82.5352 278.168 85.6435 281.825 85.6531 284.93C85.6531 291.653 82.5256 290.358 82.5831 295.776L83.341 295.805Z" fill="#2E353A"/>
<path d="M93.6934 177.064L97.4445 293.852" stroke="#F7F8FA" stroke-width="0.296627" stroke-miterlimit="10"/>
<path d="M99.2288 189.151L94.0098 193.912L89.4336 188.246" stroke="#F7F8FA" stroke-width="0.296627" stroke-miterlimit="10"/>
<path d="M99.8811 209.471L94.6622 214.242L90.0859 208.576" stroke="#F7F8FA" stroke-width="0.296627" stroke-miterlimit="10"/>
<path d="M100.494 228.592L95.2754 233.354L90.6992 227.688" stroke="#F7F8FA" stroke-width="0.296627" stroke-miterlimit="10"/>
<path d="M101.225 251.335L96.0061 256.106L91.4395 250.439" stroke="#F7F8FA" stroke-width="0.296627" stroke-miterlimit="10"/>
<path d="M101.963 274.321L96.7442 279.092L92.168 273.426" stroke="#F7F8FA" stroke-width="0.296627" stroke-miterlimit="10"/>
<path d="M103.181 222.345C104.869 223.497 109.417 224.249 109.426 224.249C109.436 224.249 109.023 221.126 108.975 220.926C108.38 218.669 105.905 214.66 103.286 214.517C102.85 214.504 102.415 214.582 102.011 214.746C101.607 214.911 101.243 215.158 100.941 215.471C100.64 215.785 100.409 216.158 100.262 216.566C100.116 216.974 100.058 217.408 100.091 217.841C100.168 219.697 101.732 221.354 103.181 222.345Z" fill="#2E353A"/>
<path d="M148.78 232.145C148.78 232.145 150.19 229.288 150.257 229.126C151.015 226.926 151.217 222.222 149.077 220.66C148.72 220.411 148.315 220.239 147.886 220.155C147.458 220.072 147.017 220.079 146.592 220.176C146.166 220.273 145.766 220.458 145.418 220.719C145.069 220.979 144.78 221.31 144.568 221.689C143.609 223.27 143.993 225.498 144.645 227.117C145.46 229.012 148.78 232.145 148.78 232.145Z" fill="#2E353A"/>
<path d="M165.482 218.461C162.969 217.699 159.237 220.594 157.894 222.508C157.778 222.67 156.253 225.46 156.301 225.47H156.359C155.764 225.917 155.14 226.422 154.44 226.965C153.202 227.993 151.802 229.174 150.372 230.555C148.815 232.025 147.345 233.583 145.969 235.221C144.422 237.052 143.041 239.015 141.843 241.087V241.163C142.006 240.42 142.38 238.306 142.39 238.154C142.534 235.83 141.431 231.25 138.994 230.298C138.582 230.149 138.143 230.088 137.706 230.119C137.269 230.151 136.844 230.273 136.458 230.479C136.072 230.685 135.735 230.97 135.467 231.314C135.2 231.659 135.009 232.056 134.907 232.478C134.408 234.25 135.377 236.288 136.432 237.687C137.632 239.249 141.402 241.268 141.709 241.43C140.542 243.582 139.519 245.809 138.649 248.096C138.14 249.42 137.689 250.762 137.2 252.124C137.315 251.476 137.421 250.886 137.421 250.81C137.564 248.486 136.461 243.906 134.034 242.954C133.623 242.806 133.186 242.746 132.751 242.778C132.316 242.809 131.892 242.931 131.507 243.136C131.123 243.341 130.786 243.624 130.519 243.967C130.251 244.309 130.06 244.704 129.957 245.125C129.448 246.896 130.417 248.934 131.472 250.334C132.528 251.734 135.732 253.524 136.586 253.981L136.068 255.552C135.252 258.057 134.456 260.571 133.602 263.009C133.295 263.866 132.969 264.704 132.643 265.532C132.739 264.961 132.825 264.466 132.835 264.399C132.979 262.066 131.875 257.495 129.439 256.543C129.028 256.394 128.591 256.333 128.155 256.363C127.719 256.394 127.295 256.516 126.91 256.721C126.525 256.926 126.187 257.21 125.921 257.553C125.654 257.896 125.463 258.292 125.361 258.714C124.862 260.485 125.822 262.523 126.887 263.923C127.952 265.323 130.839 266.942 131.837 267.494C131.482 268.332 131.117 269.189 130.734 269.989C130.455 270.532 130.225 271.074 129.918 271.608C129.611 272.141 129.333 272.665 129.045 273.179C128.45 274.131 127.836 275.179 127.232 276.131C126.819 276.788 126.417 277.407 126.004 278.036C126.311 277.179 126.887 275.503 126.963 275.36C127.325 273.343 127.16 271.267 126.484 269.332C126.539 269.107 126.571 268.877 126.58 268.646C126.608 268.214 126.545 267.78 126.394 267.374C126.242 266.968 126.007 266.597 125.702 266.287C125.397 265.978 125.029 265.735 124.623 265.575C124.218 265.416 123.783 265.342 123.347 265.361C120.727 265.542 118.291 269.579 117.734 271.836C117.734 271.97 117.504 273.455 117.389 274.398C117.389 273.836 117.389 273.293 117.331 272.712C117.331 271.57 117.197 270.427 117.12 269.198C117.053 268.608 116.995 268.008 116.928 267.408C116.861 266.808 116.756 266.18 116.669 265.561C116.439 264.123 116.132 262.704 115.787 261.237C116.804 261.237 120.382 260.99 121.955 260.209C123.529 259.428 125.304 258.009 125.649 256.2C125.743 255.777 125.747 255.339 125.659 254.914C125.571 254.49 125.395 254.088 125.14 253.736C124.886 253.384 124.56 253.089 124.183 252.87C123.806 252.652 123.387 252.514 122.953 252.467C120.334 252.248 117.322 255.876 116.42 258.019C116.362 258.162 115.892 259.771 115.643 260.666C115.432 259.799 115.23 258.933 114.99 258.057C114.29 255.552 113.503 253.029 112.726 250.505L112.036 248.191C112.39 248.191 116.66 248.029 118.425 247.153C119.989 246.382 121.773 244.953 122.109 243.144C122.205 242.722 122.21 242.284 122.123 241.859C122.037 241.435 121.861 241.033 121.607 240.681C121.354 240.329 121.028 240.033 120.652 239.814C120.275 239.596 119.856 239.458 119.423 239.411C116.804 239.192 113.782 242.82 112.88 244.972C112.813 245.134 112.131 247.458 111.988 248.058C111.489 246.353 111.028 244.658 110.587 242.963C110.015 240.679 109.595 238.36 109.33 236.021C109.493 236.021 113.945 235.878 115.758 234.983C117.322 234.212 119.106 232.783 119.442 230.974C119.538 230.551 119.542 230.114 119.456 229.689C119.37 229.265 119.194 228.863 118.94 228.511C118.687 228.158 118.361 227.863 117.985 227.644C117.608 227.425 117.189 227.288 116.756 227.241C114.137 227.022 111.115 230.65 110.213 232.793C110.155 232.936 109.637 234.697 109.407 235.554H109.263C109.052 233.194 109.052 230.82 109.263 228.46C109.368 227.165 109.541 225.927 109.733 224.727C110.568 224.784 114.376 225.013 116.094 224.384C117.811 223.756 119.663 222.565 120.2 220.803C120.341 220.393 120.394 219.958 120.354 219.526C120.314 219.094 120.183 218.675 119.97 218.297C119.756 217.919 119.465 217.589 119.114 217.33C118.764 217.071 118.362 216.889 117.936 216.794C115.355 216.29 111.959 219.565 110.827 221.603C110.76 221.718 110.261 222.908 109.867 223.784C109.963 223.251 110.05 222.689 110.155 222.175C110.539 220.27 111.009 218.489 111.441 216.947C111.69 216.071 111.93 215.28 112.17 214.547C113.014 214.176 116.41 212.642 117.619 211.347C118.828 210.052 119.941 208.1 119.605 206.281C119.538 205.857 119.383 205.451 119.149 205.089C118.915 204.728 118.607 204.419 118.246 204.182C117.885 203.946 117.478 203.786 117.051 203.715C116.624 203.643 116.187 203.661 115.767 203.767C113.254 204.5 111.757 208.957 111.69 211.29C111.69 211.49 111.968 214.642 112.016 214.623C111.776 215.328 111.517 216.08 111.268 216.918C110.798 218.451 110.309 220.194 109.867 222.137C109.384 224.215 109.025 226.32 108.793 228.441C108.514 230.814 108.453 233.208 108.611 235.592C108.606 235.621 108.606 235.65 108.611 235.678C108.323 234.973 107.469 233.012 107.383 232.869C106.222 230.85 102.758 227.622 100.197 228.165C99.7727 228.267 99.375 228.457 99.0296 228.722C98.6841 228.988 98.3986 229.322 98.1915 229.703C97.9844 230.085 97.8603 230.505 97.8273 230.937C97.7943 231.369 97.8531 231.804 97.9999 232.212C98.5659 233.964 100.513 235.154 102.164 235.726C104.034 236.373 108.304 235.992 108.639 235.954C108.855 238.38 109.236 240.789 109.781 243.163C110.078 244.544 110.433 245.934 110.808 247.315C110.539 246.706 110.299 246.172 110.261 246.096C109.09 244.077 105.636 240.859 103.065 241.401C102.64 241.503 102.242 241.692 101.896 241.957C101.549 242.221 101.263 242.556 101.056 242.938C100.848 243.32 100.725 243.741 100.692 244.173C100.66 244.606 100.72 245.04 100.868 245.449C101.434 247.201 103.382 248.382 105.042 248.962C106.701 249.543 110.366 249.286 111.326 249.21C111.479 249.734 111.613 250.267 111.767 250.791C112.486 253.333 113.216 255.867 113.849 258.361C114.079 259.247 114.261 260.123 114.453 260.999C114.223 260.466 114.021 260.047 113.983 259.942C112.813 257.923 109.359 254.705 106.788 255.248C106.364 255.35 105.966 255.54 105.62 255.805C105.275 256.07 104.989 256.405 104.782 256.786C104.575 257.168 104.451 257.588 104.418 258.02C104.385 258.452 104.444 258.887 104.591 259.295C105.157 261.047 107.104 262.237 108.764 262.809C110.424 263.38 113.734 263.161 114.875 263.066C115.048 263.97 115.221 264.875 115.336 265.761C115.413 266.361 115.518 266.942 115.556 267.551C115.595 268.16 115.652 268.751 115.7 269.351C115.758 270.494 115.815 271.674 115.835 272.789C115.835 273.569 115.835 274.312 115.835 275.055C115.624 274.179 115.173 272.465 115.115 272.322C114.271 270.151 111.345 266.446 108.726 266.608C108.291 266.646 107.869 266.774 107.487 266.983C107.105 267.193 106.772 267.48 106.509 267.825C106.246 268.171 106.058 268.567 105.959 268.989C105.86 269.411 105.852 269.849 105.934 270.275C106.231 272.093 107.968 273.56 109.522 274.379C111.22 275.274 115.336 275.55 115.844 275.579C115.844 276.817 115.844 278.017 115.844 279.15C115.787 282.711 115.614 285.721 115.451 287.949L117.187 288.292C117.302 286.006 117.418 282.873 117.408 279.159C117.408 277.902 117.408 276.569 117.331 275.188C118.629 274.949 119.91 274.631 121.169 274.236C122.214 275.912 125.275 278.226 125.668 278.521C124.987 279.559 124.315 280.559 123.673 281.492C121.658 284.397 119.835 286.787 118.483 288.558L120.401 288.92C121.677 287.187 123.279 284.968 124.977 282.349C125.678 281.302 126.397 280.169 127.126 278.997C127.597 279.188 131.405 280.759 133.334 280.702C135.089 280.645 137.305 280.093 138.38 278.588C138.643 278.244 138.831 277.848 138.931 277.428C139.03 277.007 139.04 276.57 138.958 276.145C138.877 275.72 138.706 275.317 138.458 274.962C138.21 274.607 137.889 274.308 137.516 274.084C135.224 272.798 130.954 274.836 129.227 276.407C129.122 276.502 128.134 277.636 127.52 278.312C127.817 277.826 128.105 277.36 128.402 276.864C129.007 275.912 129.573 274.893 130.187 273.827L131.022 272.227C131.319 271.703 131.559 271.103 131.827 270.541C132.432 269.218 132.979 267.846 133.497 266.456C134.37 266.98 137.468 268.77 139.253 268.979C141.037 269.189 143.273 268.979 144.558 267.656C144.873 267.355 145.12 266.992 145.283 266.591C145.447 266.189 145.524 265.758 145.508 265.325C145.493 264.892 145.386 264.467 145.194 264.078C145.002 263.688 144.73 263.344 144.395 263.066C142.333 261.447 137.795 262.818 135.847 264.123C135.732 264.199 134.437 265.285 133.737 265.894C134.044 265.056 134.351 264.228 134.638 263.361C135.444 260.885 136.193 258.352 136.95 255.828C137.181 255.057 137.421 254.286 137.66 253.524C137.967 253.705 141.603 255.914 143.561 256.152C145.307 256.362 147.58 256.152 148.866 254.829C149.18 254.528 149.427 254.165 149.591 253.763C149.755 253.362 149.831 252.93 149.816 252.497C149.801 252.064 149.694 251.639 149.502 251.25C149.31 250.861 149.038 250.516 148.703 250.239C146.64 248.62 142.102 249.991 140.155 251.296C140.011 251.391 138.15 252.962 137.699 253.381C138.217 251.686 138.754 250 139.358 248.363C140.15 246.146 141.086 243.983 142.16 241.887C142.304 241.973 146.093 244.296 148.098 244.534C149.844 244.753 152.118 244.534 153.404 243.211C153.718 242.91 153.965 242.547 154.129 242.146C154.293 241.744 154.369 241.313 154.354 240.88C154.339 240.447 154.231 240.022 154.04 239.632C153.848 239.243 153.576 238.898 153.241 238.621C151.178 237.011 146.64 238.383 144.693 239.678C144.568 239.763 143.148 240.954 142.486 241.582L142.371 241.487C143.513 239.406 144.839 237.431 146.333 235.583C147.139 234.564 147.974 233.621 148.799 232.726C149.461 233.221 152.511 235.497 154.296 235.916C156.08 236.335 158.287 236.345 159.716 235.173C160.061 234.908 160.346 234.574 160.553 234.192C160.759 233.81 160.882 233.39 160.914 232.958C160.945 232.525 160.885 232.092 160.737 231.684C160.588 231.277 160.355 230.905 160.052 230.593C158.181 228.765 153.528 229.641 151.418 230.707C151.303 230.774 150.219 231.488 149.441 232.031C149.816 231.631 150.199 231.212 150.574 230.841C151.974 229.441 153.337 228.231 154.555 227.184C155.246 226.584 155.888 226.06 156.474 225.584C157.385 225.736 161.059 226.327 162.796 225.898C164.532 225.47 166.547 224.46 167.267 222.765C167.464 222.37 167.574 221.938 167.59 221.498C167.605 221.058 167.526 220.619 167.357 220.212C167.188 219.804 166.933 219.437 166.61 219.135C166.287 218.833 165.902 218.603 165.482 218.461Z" fill="#2E353A"/>
<path d="M141.748 287.559H70.3418V296.939H141.748V287.559Z" fill="#2E353A"/>
<path d="M130.523 323.907H81.5564L75.4355 295.9H136.644L130.523 323.907Z" fill="#2E353A"/>
<path d="M70.9447 145.631L70.2252 213.186C70.2252 213.186 67.3471 214.623 59.3651 214.623C51.3831 214.623 48.505 213.186 48.505 213.186L51.3831 185.874C51.3831 185.874 41.2617 183.722 41.2617 180.865C41.2617 178.008 63.7015 98.9688 63.7015 98.9688C63.7015 98.9688 75.2907 119.033 70.9447 145.631Z" fill="#0B83D9" stroke="#2E353A" stroke-width="0.545644" stroke-miterlimit="10"/>
<path d="M51.3945 185.863L60.7772 142.82" stroke="#2E353A" stroke-width="0.545644" stroke-miterlimit="10"/>
<path d="M55.0215 98.9118C55.0215 98.9118 68.0498 116.158 69.4984 123.347C70.9471 130.537 70.9471 145.631 70.9471 145.631C75.1957 135.052 77.8779 123.919 78.9099 112.577C80.3585 94.6075 65.8816 85.2656 65.8816 85.2656L55.0215 98.9118Z" fill="#2E353A" stroke="#2E353A" stroke-width="0.545644" stroke-miterlimit="10"/>
<path d="M299.843 145.631L300.562 213.186C300.562 213.186 303.441 214.623 311.423 214.623C319.405 214.623 322.283 213.186 322.283 213.186L319.405 185.874C319.405 185.874 329.526 183.722 329.526 180.865C329.526 178.008 307.077 98.9688 307.077 98.9688C307.077 98.9688 295.497 119.033 299.843 145.631Z" fill="#0B83D9" stroke="#2E353A" stroke-width="0.545644" stroke-miterlimit="10"/>
<path d="M319.385 185.864L310.684 135.812" stroke="#2E353A" stroke-width="0.545644" stroke-miterlimit="10"/>
<path d="M315.767 98.9116C315.767 98.9116 302.73 116.157 301.281 123.347C299.832 130.537 299.842 145.621 299.842 145.621C295.587 135.044 292.902 123.91 291.869 112.567C290.421 94.5977 304.907 85.2559 304.907 85.2559L315.767 98.9116Z" fill="#2E353A" stroke="#2E353A" stroke-width="0.545644" stroke-miterlimit="10"/>
<path d="M315.663 98.9112C276.199 75.7441 231.191 63.5221 185.342 63.5221C139.492 63.5221 94.4846 75.7441 55.0205 98.9112L32.1682 60.5532C30.5277 57.8297 32.0723 53.8873 35.6699 51.9255C81.4074 26.5459 132.933 13.2207 185.332 13.2207C237.731 13.2207 289.257 26.5459 334.994 51.9255C338.582 53.9158 340.137 57.8297 338.496 60.5532L315.663 98.9112Z" fill="#0B83D9"/>
<path d="M315.663 98.9112C276.199 75.7441 231.191 63.5221 185.342 63.5221C139.492 63.5221 94.4846 75.7441 55.0205 98.9112L32.1682 60.5532C30.5277 57.8297 32.0723 53.8873 35.6699 51.9255C81.4074 26.5459 132.933 13.2207 185.332 13.2207C237.731 13.2207 289.257 26.5459 334.994 51.9255C338.582 53.9158 340.137 57.8297 338.496 60.5532L315.663 98.9112Z" stroke="#2E353A" stroke-width="0.545644" stroke-miterlimit="10"/>
<path d="M79.298 54.8377C78.8879 54.9681 78.5218 54.9757 78.1999 54.8606C77.8932 54.7407 77.5953 54.4924 77.3063 54.1159L68.2036 42.1807C67.8798 41.7483 67.7781 41.329 67.8982 40.9228C68.0336 40.5118 68.3824 40.2169 68.9445 40.0382C69.3547 39.9078 69.7055 39.9049 69.9971 40.0297C70.2837 40.1393 70.5615 40.3772 70.8304 40.7434L78.8536 51.5916L77.9421 51.8814L78.3124 38.3897C78.3321 37.9318 78.4241 37.568 78.5884 37.2983C78.7526 37.0286 79.017 36.8358 79.3817 36.7199C79.7463 36.604 80.0667 36.6108 80.3431 36.7404C80.6194 36.87 80.9021 37.1231 81.1911 37.4996L89.2452 48.2878L88.4476 48.5414L88.6966 35.0632C88.7061 34.6253 88.7929 34.2714 88.9572 34.0018C89.1214 33.7321 89.401 33.5345 89.796 33.4089C90.2822 33.2543 90.6931 33.3077 91.0287 33.569C91.3642 33.8303 91.5268 34.2303 91.5163 34.7689L91.0552 49.7699C91.0354 50.2278 90.9358 50.594 90.7564 50.8685C90.577 51.143 90.2822 51.3455 89.872 51.4759C89.4618 51.6063 89.1033 51.6116 88.7966 51.4916C88.4899 51.3717 88.192 51.1234 87.903 50.7469L80.2955 40.72L80.8197 40.5534L80.4585 53.1389C80.4387 53.5968 80.3391 53.963 80.1597 54.2375C79.9955 54.5072 79.7082 54.7072 79.298 54.8377Z" fill="#FAFCFF"/>
<path d="M119.221 42.7346C118.706 42.8443 118.278 42.7963 117.94 42.5907C117.613 42.366 117.395 41.996 117.283 41.4807L114.406 28.1509C114.295 27.6355 114.343 27.2168 114.551 26.8948C114.772 26.5538 115.14 26.3285 115.656 26.2188L124.025 24.4388C124.415 24.3557 124.734 24.394 124.981 24.5538C125.244 24.7103 125.416 24.976 125.497 25.3508C125.581 25.7413 125.537 26.0691 125.366 26.3343C125.206 26.5805 124.931 26.7452 124.541 26.8283L117.461 28.3341L118.442 32.8789L125.006 31.4828C125.412 31.3963 125.739 31.433 125.986 31.5928C126.233 31.7527 126.399 32.0278 126.483 32.4182C126.567 32.8087 126.53 33.127 126.37 33.3733C126.211 33.6195 125.928 33.7859 125.522 33.8723L118.958 35.2684L119.995 40.0709L127.074 38.565C127.465 38.4819 127.784 38.5203 128.031 38.6801C128.293 38.8366 128.467 39.1101 128.551 39.5005C128.635 39.891 128.59 40.211 128.415 40.4605C128.256 40.7068 127.981 40.8715 127.59 40.9546L119.221 42.7346Z" fill="#FAFCFF"/>
<path d="M145.152 37.6885C144.663 37.7523 144.266 37.6675 143.962 37.4342C143.657 37.1851 143.471 36.816 143.407 36.3268L141.6 22.669C141.533 22.164 141.609 21.7688 141.828 21.4834C142.061 21.1802 142.422 20.9966 142.911 20.9329C143.401 20.8691 143.789 20.9549 144.078 21.1902C144.379 21.4077 144.564 21.769 144.63 22.2739L146.302 34.914L153.169 34.019C153.595 33.9635 153.933 34.0318 154.183 34.2239C154.449 34.4139 154.609 34.7141 154.664 35.1244C154.718 35.5347 154.642 35.8736 154.437 36.1412C154.245 36.3909 153.936 36.5435 153.51 36.5991L145.152 37.6885Z" fill="#FAFCFF"/>
<path d="M176.671 34.5279C174.919 34.5902 173.4 34.2932 172.117 33.6369C170.848 32.9642 169.856 31.9945 169.14 30.7278C168.424 29.4452 168.034 27.9197 167.97 26.1513C167.923 24.829 168.071 23.6354 168.415 22.5703C168.759 21.4893 169.276 20.5617 169.966 19.7874C170.655 18.9973 171.511 18.3846 172.532 17.9496C173.569 17.498 174.74 17.249 176.046 17.2026C176.923 17.1714 177.787 17.2524 178.639 17.4454C179.492 17.6385 180.244 17.9308 180.896 18.3224C181.238 18.5176 181.471 18.7646 181.593 19.0633C181.715 19.3461 181.749 19.632 181.696 19.921C181.642 20.1941 181.515 20.4299 181.314 20.6285C181.13 20.8264 180.887 20.9467 180.586 20.9894C180.3 21.0155 179.977 20.9232 179.619 20.7127C179.113 20.4116 178.571 20.1995 177.992 20.0765C177.414 19.9535 176.83 19.9025 176.24 19.9234C175.109 19.9636 174.161 20.2286 173.398 20.7183C172.634 21.2081 172.068 21.8982 171.701 22.7885C171.335 23.6789 171.174 24.7614 171.22 26.0359C171.266 27.2944 171.504 28.3627 171.934 29.2407C172.365 30.1187 172.978 30.7749 173.776 31.2092C174.573 31.6434 175.537 31.8405 176.669 31.8003C177.274 31.7788 177.869 31.6859 178.453 31.5215C179.037 31.3413 179.586 31.0825 180.1 30.7452C180.443 30.5256 180.751 30.427 181.023 30.4492C181.31 30.4549 181.552 30.542 181.75 30.7105C181.947 30.8789 182.083 31.0975 182.156 31.366C182.229 31.6187 182.223 31.8901 182.138 32.1802C182.052 32.4545 181.869 32.7002 181.59 32.9175C180.97 33.4022 180.218 33.7878 179.335 34.0744C178.467 34.3445 177.579 34.4957 176.671 34.5279Z" fill="#FAFCFF"/>
<path d="M206.504 34.4025C204.878 34.2573 203.484 33.7711 202.321 32.9441C201.175 32.1185 200.325 31.0302 199.773 29.6792C199.221 28.3123 199.025 26.752 199.184 24.9986C199.304 23.6755 199.603 22.505 200.081 21.4871C200.561 20.4532 201.185 19.593 201.955 18.9065C202.741 18.2054 203.647 17.6998 204.672 17.3895C205.714 17.0648 206.848 16.9573 208.076 17.0669C209.718 17.2136 211.113 17.6998 212.259 18.5254C213.407 19.335 214.257 20.4153 214.81 21.7663C215.362 23.1174 215.559 24.6696 215.4 26.4231C215.28 27.7462 214.981 28.9246 214.501 29.9585C214.022 30.9923 213.389 31.8598 212.602 32.5609C211.831 33.2634 210.924 33.777 209.882 34.1017C208.858 34.4119 207.732 34.5122 206.504 34.4025ZM206.743 31.7723C207.779 31.8649 208.678 31.7041 209.438 31.29C210.215 30.8773 210.836 30.2337 211.301 29.3592C211.782 28.4862 212.079 27.4201 212.194 26.1607C212.367 24.2478 212.071 22.7269 211.306 21.5979C210.556 20.4703 209.4 19.8367 207.838 19.6972C206.817 19.606 205.919 19.7668 205.142 20.1795C204.367 20.5763 203.739 21.2112 203.258 22.0842C202.794 22.9427 202.505 24.0096 202.389 25.2848C202.217 27.1818 202.513 28.7027 203.277 29.8477C204.041 30.9926 205.196 31.6341 206.743 31.7723Z" fill="#FAFCFF"/>
<path d="M235.313 37.5719C234.879 37.4678 234.576 37.264 234.404 36.9604C234.232 36.6568 234.198 36.2881 234.304 35.8544L237.702 21.8905C237.811 21.4413 238.018 21.1303 238.323 20.9574C238.631 20.769 239.002 20.7269 239.436 20.831C239.824 20.9239 240.107 21.0738 240.287 21.2808C240.485 21.4759 240.634 21.7739 240.734 22.1748L243.893 34.1701L243.149 33.9917L251.477 24.7507C251.75 24.439 252.011 24.2395 252.262 24.1521C252.517 24.0493 252.838 24.0443 253.226 24.1372C253.66 24.2413 253.963 24.4451 254.135 24.7487C254.311 25.0368 254.345 25.4055 254.235 25.8547L250.837 39.8186C250.732 40.2523 250.532 40.5652 250.239 40.7573C249.962 40.9531 249.599 40.9971 249.149 40.8893C248.715 40.7852 248.412 40.5814 248.24 40.2778C248.067 39.9742 248.034 39.6056 248.14 39.1719L250.758 28.4143L251.269 28.537L244.22 36.2649C244.001 36.4911 243.791 36.6457 243.591 36.7287C243.39 36.8117 243.142 36.8179 242.848 36.7473C242.553 36.6767 242.328 36.5571 242.172 36.3886C242.02 36.2046 241.904 35.9719 241.825 35.6906L239.067 25.5866L239.625 25.7204L237.001 36.5012C236.896 36.9349 236.696 37.2478 236.404 37.4399C236.126 37.6357 235.763 37.6797 235.313 37.5719Z" fill="#FAFCFF"/>
<path d="M276.707 48.3419C276.216 48.1532 275.885 47.8812 275.716 47.5258C275.567 47.1612 275.588 46.7339 275.78 46.2438L280.723 33.5672C280.914 33.0771 281.185 32.7544 281.537 32.5991C281.909 32.4347 282.34 32.4468 282.831 32.6355L290.8 35.6972C291.172 35.8401 291.417 36.0453 291.536 36.3127C291.669 36.5858 291.666 36.9006 291.527 37.2571C291.382 37.6284 291.165 37.878 290.875 38.0059C290.607 38.1246 290.286 38.1125 289.914 37.9696L283.173 35.3796L281.488 39.7016L287.738 42.103C288.125 42.2516 288.377 42.4597 288.495 42.7271C288.614 42.9945 288.6 43.3139 288.455 43.6852C288.311 44.0565 288.104 44.3015 287.835 44.4203C287.566 44.539 287.239 44.5241 286.852 44.3754L280.602 41.9741L278.821 46.5412L285.562 49.1312C285.934 49.2741 286.179 49.4793 286.297 49.7467C286.43 50.0198 286.424 50.3421 286.279 50.7134C286.135 51.0847 285.92 51.3269 285.637 51.4399C285.368 51.5587 285.048 51.5466 284.676 51.4036L276.707 48.3419Z" fill="#FAFCFF"/>
<path d="M268.43 143.343C268.43 143.343 256.227 134.391 250.365 130.011C244.503 125.63 234.459 113.06 231.945 107.537C230.702 104.693 229.305 101.918 227.762 99.2233C227.762 99.2233 228.923 93.6715 228.923 92.3002C228.923 90.9289 227.801 89.1196 227.091 87.9578C226.736 87.3769 224.213 84.0535 224.213 86.5865C224.213 88.5673 225.412 89.5576 225.412 90.748C223.797 89.8624 222.467 88.542 221.574 86.9389C220.174 84.3677 219.579 83.3678 218.773 83.9677C217.344 85.0343 219.176 87.7769 219.176 87.7769C219.176 87.7769 218.773 83.9678 216.778 84.5963C215.626 84.9391 217.18 88.1673 217.977 89.5576C218.773 90.948 217.574 88.6054 217.775 90.948C217.919 92.6907 219.924 96.9759 221.776 99.0805C222.447 99.8518 224.011 99.6138 224.174 99.8804C224.769 100.833 231.168 115.555 235.562 122.897C239.956 130.239 242.566 132.42 246.163 135.991C249.761 139.562 254.558 145.714 258.75 148.685C262.943 151.656 265.149 150.475 267.548 148.485C269.946 146.495 270.301 145.361 268.43 143.343Z" fill="#F7F8FA" stroke="#2E353A" stroke-width="0.545644" stroke-linecap="round" stroke-linejoin="round"/>
<path d="M225.343 90.7363C225.343 90.7363 223.539 94.1169 224.383 95.4977" stroke="#2E353A" stroke-width="0.545644" stroke-linecap="round" stroke-linejoin="round"/>
<path d="M219.146 87.7695L220.749 90.7406" stroke="#2E353A" stroke-width="0.545644" stroke-linecap="round" stroke-linejoin="round"/>
<path d="M220.941 97.491C219.564 95.7568 218.359 93.8944 217.343 91.9297C216.547 89.9489 217.151 85.5875 218.351 86.3779C219.55 87.1683 219.147 91.5392 219.147 91.5392L221.545 94.3104" fill="#F7F8FA"/>
<path d="M220.941 97.491C219.564 95.7568 218.359 93.8944 217.343 91.9297C216.547 89.9489 217.151 85.5875 218.351 86.3779C219.55 87.1683 219.147 91.5392 219.147 91.5392L221.545 94.3104" stroke="#2E353A" stroke-width="0.545644" stroke-linecap="round" stroke-linejoin="round"/>
<path d="M271.01 118.602C271.01 118.602 264.88 116.383 265.992 108.631C267.105 100.88 273.802 104.756 273.802 104.756C273.802 104.756 267.086 95.8899 280.776 93.9568C294.467 92.0237 304.502 104.203 307.85 117.764C311.198 131.324 289.986 132.715 293.056 142.971C296.126 153.227 308.128 164.873 306.171 178.977C304.214 193.08 284.691 200.879 275.759 193.375C266.827 185.871 263.201 174.272 268.257 163.721C273.312 153.17 276.066 140.733 277.457 135.153C278.848 129.572 271.01 118.602 271.01 118.602Z" fill="#2E353A" stroke="#2E353A" stroke-width="0.545644" stroke-linecap="round" stroke-linejoin="round"/>
<path d="M292.96 128.962C284.565 125.629 280.248 112.059 280.248 104.441C280.248 96.8228 291.041 100.632 291.041 100.632C291.041 100.632 280.488 102.537 285.764 112.774C291.041 123.011 300.395 126.106 305.192 123.011" stroke="#F7F8FA" stroke-width="0.409233" stroke-linecap="round" stroke-linejoin="round"/>
<path d="M291.281 136.344C291.281 136.344 283.846 138.724 286.004 148.009C288.163 157.294 304.712 168.959 299.915 180.863C295.118 192.766 286.724 197.528 276.65 193.957" stroke="#F7F8FA" stroke-width="0.409233" stroke-linecap="round" stroke-linejoin="round"/>
<path d="M287.684 138.248C287.684 138.248 279.529 141.581 278.57 153.485C277.61 165.388 287.444 175.625 282.887 181.577C278.33 187.529 270.895 186.814 268.496 183.243" stroke="#F7F8FA" stroke-width="0.409233" stroke-linecap="round" stroke-linejoin="round"/>
<path d="M269.063 131.619C269.063 131.619 269.897 134.666 267.144 139.38C264.39 144.094 262.961 145.189 262.961 145.189L273.006 144.361L279.424 132.724C279.424 132.724 269.619 133.562 269.063 131.619Z" fill="#F7F8FA" stroke="#2E353A" stroke-width="0.545644" stroke-linecap="round" stroke-linejoin="round"/>
<path d="M279.108 105.861C279.108 105.861 269.341 114.727 267.384 122.479C265.427 130.23 267.94 135.22 271.577 135.22C275.213 135.22 282.734 132.173 282.734 132.173C282.734 132.173 284.969 134.077 287.195 133.011C287.832 132.705 288.375 132.235 288.768 131.651C289.161 131.067 289.39 130.389 289.43 129.687C289.43 129.687 274.08 114.727 279.108 105.861Z" fill="#F7F8FA" stroke="#2E353A" stroke-width="0.545644" stroke-linecap="round" stroke-linejoin="round"/>
<path d="M274.971 119.163C274.3 120.011 273.494 120.487 273.158 120.23C272.822 119.973 273.091 119.078 273.763 118.23C274.434 117.382 275.24 116.906 275.566 117.163C275.892 117.421 275.633 118.316 274.971 119.163Z" fill="#2E353A"/>
<path d="M279.616 123.992C278.954 124.85 278.139 125.326 277.803 125.069C277.467 124.811 277.745 123.916 278.407 123.069C279.069 122.221 279.885 121.736 280.221 121.993C280.556 122.25 280.278 123.145 279.616 123.992Z" fill="#2E353A"/>
<path d="M274.531 120.973C273.393 121.371 272.297 121.882 271.26 122.496C270.387 123.144 271.912 124.01 271.912 124.01" stroke="#2E353A" stroke-width="0.409233" stroke-linecap="round" stroke-linejoin="round"/>
<path d="M269.293 126.174C269.45 126.878 269.833 127.513 270.385 127.982C270.937 128.451 271.628 128.729 272.353 128.774C273.724 128.977 275.123 128.669 276.277 127.907" stroke="#2E353A" stroke-width="0.409233" stroke-linecap="round" stroke-linejoin="round"/>
<path d="M274.752 113.612C275.446 113.504 276.154 113.672 276.725 114.078C277.296 114.484 277.683 115.096 277.803 115.783" stroke="#2E353A" stroke-width="0.409233" stroke-linecap="round" stroke-linejoin="round"/>
<path d="M279.77 119.031C279.77 119.031 283.473 120.326 282.389 123.145" stroke="#2E353A" stroke-width="0.409233" stroke-linecap="round" stroke-linejoin="round"/>
<path d="M243.159 321.029C243.159 321.029 237.998 324.448 236.271 325.296C234.544 326.143 227.243 327.429 227.023 329.352C226.802 331.276 230.678 332.342 234.985 332.342C239.293 332.342 244.445 332.342 247.026 332.771C249.606 333.199 251.333 334.047 252.408 331.276C253.482 328.505 251.755 321.239 251.755 321.239C251.755 321.239 247.246 322.953 243.159 321.029Z" fill="#0B83D9" stroke="#2E353A" stroke-width="0.545644" stroke-linecap="round" stroke-linejoin="round"/>
<path d="M245.089 245.027C245.089 245.027 242.086 258.902 242.086 263.387C242.086 267.873 243.803 296.908 244.235 305.012C244.444 310.373 244.084 315.742 243.16 321.029C243.16 321.029 246.816 322.734 248.322 322.734C249.828 322.734 251.756 321.239 251.756 321.239C251.756 321.239 256.064 302.45 256.064 292.422C256.064 282.395 256.918 276.624 256.064 270.215C255.21 263.806 252.227 252.074 253.263 247.798C254.299 243.523 248.322 238.618 245.089 245.027Z" fill="#2E353A" stroke="#2E353A" stroke-width="0.545644" stroke-linecap="round" stroke-linejoin="round"/>
<path d="M245.059 183.719C245.059 183.719 241.395 208.345 241.395 226.619C241.395 244.894 249.213 266.787 251.161 269.834C253.108 272.881 270.137 303.345 274.042 309.716C276.805 314.546 279.092 319.629 280.873 324.895C282.235 325.311 283.637 325.589 285.056 325.724C286.456 325.724 288.404 324.067 288.404 324.067C288.404 324.067 279.347 288.937 275.721 279.804C272.094 270.672 264.592 263.463 262.645 259.902C260.697 256.34 259.853 242.446 259.853 242.446C259.853 242.446 271.289 224.448 273.284 214.754C275.28 205.06 269.898 194.194 267.662 190.385C266.201 187.789 264.897 185.108 263.758 182.357C263.758 182.357 252.044 189.233 245.059 183.719Z" fill="#2E353A" stroke="#2E353A" stroke-width="0.545644" stroke-linecap="round" stroke-linejoin="round"/>
<path d="M266.27 173.721C266.27 173.721 273.245 152.399 274.904 147.409C276.564 142.419 274.06 140.486 266.529 141.314C258.998 142.143 245.883 147.98 245.327 154.332C244.77 160.684 247.246 164.302 247.246 167.35C247.246 170.397 242.832 183.719 246.19 186.462C249.548 189.205 260.14 188.367 263.21 184.557C266.28 180.748 266.27 173.721 266.27 173.721Z" fill="#0B83D9" stroke="#2E353A" stroke-width="0.545644" stroke-linecap="round" stroke-linejoin="round"/>
<path d="M268.43 143.342C268.834 146.826 267.97 150.339 265.993 153.246C262.645 158.502 255.113 156.569 255.67 150.751C256.226 144.932 263.326 140.104 268.43 143.342Z" fill="#F7F8FA" stroke="#2E353A" stroke-width="0.545644" stroke-linecap="round" stroke-linejoin="round"/>
<path d="M263.671 151.591C264.578 151.447 265.442 151.104 266.199 150.587C266.957 150.07 267.588 149.391 268.048 148.601C268.507 147.811 268.783 146.929 268.856 146.02C268.929 145.11 268.796 144.196 268.468 143.344C268.26 142.756 267.899 142.234 267.423 141.829C266.946 141.424 266.37 141.152 265.753 141.039C260.956 140.211 240.08 141.868 234.775 141.316C229.469 140.763 209.39 128.574 204.075 123.87C198.76 119.165 196.822 116.671 196.822 114.728C196.822 112.785 195.421 108.357 194.308 106.976C193.195 105.595 191.238 102.815 191.238 102.815C191.238 102.815 189.319 102.815 189.569 103.929C190.023 105.173 190.582 106.377 191.238 107.529C191.238 107.529 185.655 104.205 184.264 102.767C184.124 102.576 183.945 102.415 183.74 102.296C183.534 102.178 183.305 102.103 183.068 102.077C182.832 102.051 182.592 102.074 182.365 102.145C182.138 102.217 181.928 102.335 181.75 102.491L184.82 105.814C184.82 105.814 184.542 108.033 186.739 111.633C188.401 114.092 190.478 116.247 192.879 118.004C192.879 118.004 204.036 131.021 212.412 138.221C220.787 145.42 228.587 149.858 235.571 150.962C241.73 151.991 251.343 153.829 263.671 151.591Z" fill="#F7F8FA" stroke="#2E353A" stroke-width="0.545644" stroke-linecap="round" stroke-linejoin="round"/>
<path d="M280.91 324.895C280.91 324.895 276.497 329.571 273.484 331.485C270.472 333.399 266.596 334.694 267.248 336.398C267.901 338.103 275.883 337.894 279.72 337.675C283.558 337.456 291.329 333.865 292.624 332.98C293.919 332.094 288.441 324.066 288.441 324.066C288.441 324.066 284.249 326.409 280.91 324.895Z" fill="#0B83D9" stroke="#2E353A" stroke-width="0.545644" stroke-linecap="round" stroke-linejoin="round"/>
<path d="M279.768 337.674C283.606 337.464 291.377 333.864 292.672 332.979C293.027 332.741 292.854 331.941 292.432 330.922C288.063 333.072 283.451 334.696 278.694 335.759C272.4 337.093 268.831 336.464 267.229 335.959C267.224 336.108 267.247 336.257 267.296 336.397C267.891 338.102 275.844 337.893 279.768 337.674Z" fill="#2E353A" stroke="#2E353A" stroke-width="0.545644" stroke-linecap="round" stroke-linejoin="round"/>
<path d="M252.407 331.324C252.599 330.759 252.706 330.169 252.724 329.572C251.016 330.944 249.779 330.296 247.025 330.467C243.581 330.686 242.295 330.686 235.196 330.686C232.417 330.755 229.65 330.299 227.041 329.344C227.046 329.363 227.046 329.382 227.041 329.401C226.83 331.305 230.697 332.391 235.004 332.391C239.312 332.391 244.464 332.391 247.044 332.82C249.625 333.248 251.333 334.048 252.407 331.324Z" fill="#2E353A" stroke="#2E353A" stroke-width="0.545644" stroke-linecap="round" stroke-linejoin="round"/>
<path d="M259.852 242.408C259.852 242.408 260.648 229.229 262.116 226.619C263.584 224.01 267.076 220.534 269.407 218.506" stroke="#F7F8FA" stroke-width="0.409233" stroke-linecap="round" stroke-linejoin="round"/>
</svg>
