<svg width="372" height="298" viewBox="0 0 372 298" fill="none" xmlns="http://www.w3.org/2000/svg">
<rect width="372" height="126" transform="translate(0 129.908)" fill="#73C5FF"/>
<path d="M286.607 274.049L306.802 265.707C305.391 263.412 303.981 264.497 302.177 260.784C301.218 258.879 302.062 255.813 300.854 253.356C299.894 251.346 296.911 250.07 295.759 247.766C294.714 245.69 295.471 242.595 294.339 240.357C293.207 238.119 290.3 237.015 289.168 234.834C288.036 232.653 288.775 229.587 287.633 227.444C286.492 225.302 283.508 224.121 282.366 222.007C281.225 219.893 281.829 216.721 280.659 214.655C279.488 212.589 276.409 211.389 275.229 209.398C273.905 207.17 274.394 204.018 273.176 202.123C271.689 199.818 268.59 198.98 267.333 197.362C264.973 194.314 263.707 190.962 262.536 191.191C261.366 191.419 262.383 194.79 263.025 198.809C263.352 200.809 261.836 203.57 262.507 206.246C263.045 208.399 265.693 210.189 266.422 212.646C267.064 214.845 265.779 217.75 266.537 220.121C267.295 222.492 269.962 224.006 270.739 226.32C271.516 228.635 270.298 231.52 271.084 233.796C271.871 236.072 274.634 237.662 275.43 239.9C276.226 242.138 275.104 245.157 275.91 247.366C276.716 249.575 279.546 251.251 280.342 253.413C281.234 255.803 280.131 258.774 280.918 260.86C281.877 263.393 284.688 264.936 285.427 266.85C287.029 271.03 284.774 270.954 286.098 274.306L286.607 274.049Z" fill="#2E353A"/>
<path d="M264.857 197.943L294.886 269.545" stroke="white" stroke-width="0.196895" stroke-miterlimit="10"/>
<path d="M271.161 204.15L269.05 208.321L264.867 205.874" stroke="white" stroke-width="0.196895" stroke-miterlimit="10"/>
<path d="M276.38 216.607L274.279 220.788L270.096 218.341" stroke="white" stroke-width="0.196895" stroke-miterlimit="10"/>
<path d="M281.301 228.33L279.2 232.511L275.008 230.063" stroke="white" stroke-width="0.196895" stroke-miterlimit="10"/>
<path d="M287.155 242.271L285.044 246.452L280.861 244.005" stroke="white" stroke-width="0.196895" stroke-miterlimit="10"/>
<path d="M293.063 256.365L290.962 260.546L286.779 258.098" stroke="white" stroke-width="0.196895" stroke-miterlimit="10"/>
<path d="M284.323 268.516L317.268 267.478C316.51 263.497 313.949 264.278 313.431 258.098C313.162 254.974 315.944 251.022 315.561 246.927C315.244 243.556 311.781 240.204 311.397 236.348C311.052 232.872 313.786 228.91 313.392 225.158C313.009 221.616 309.497 218.311 309.085 214.636C308.672 210.96 311.349 207.017 310.908 203.408C310.466 199.799 306.888 196.542 306.408 192.933C305.929 189.324 308.5 185.2 307.962 181.677C307.406 177.944 303.741 174.811 303.166 171.373C302.504 167.564 304.892 163.355 304.192 160.06C303.338 156.013 299.395 153.185 298.532 150.214C296.862 144.671 296.872 139.272 295.097 138.977C293.322 138.681 292.939 143.957 291.701 149.909C291.077 152.899 287.441 156.023 286.962 160.117C286.568 163.431 289.331 167.355 289.024 171.192C288.746 174.64 285.379 178.049 285.187 181.782C284.985 185.305 287.931 189.086 287.768 192.762C287.604 196.437 284.352 199.837 284.237 203.465C284.122 207.093 287.115 210.788 287.067 214.369C287.019 217.949 283.777 221.606 283.719 225.139C283.661 228.872 286.751 232.538 286.712 236.005C286.712 239.814 283.527 243.452 283.518 246.813C283.518 250.879 286.626 254.536 286.636 257.641C286.636 264.364 283.508 263.069 283.566 268.487L284.323 268.516Z" fill="#2E353A"/>
<path d="M294.676 149.775L298.427 266.563" stroke="white" stroke-width="0.296627" stroke-miterlimit="10"/>
<path d="M300.211 161.862L294.992 166.623L290.416 160.957" stroke="white" stroke-width="0.296627" stroke-miterlimit="10"/>
<path d="M300.864 182.182L295.645 186.953L291.068 181.287" stroke="white" stroke-width="0.296627" stroke-miterlimit="10"/>
<path d="M301.477 201.303L296.258 206.065L291.682 200.398" stroke="white" stroke-width="0.296627" stroke-miterlimit="10"/>
<path d="M302.207 224.046L296.988 228.816L292.422 223.15" stroke="white" stroke-width="0.296627" stroke-miterlimit="10"/>
<path d="M302.946 247.032L297.727 251.803L293.15 246.137" stroke="white" stroke-width="0.296627" stroke-miterlimit="10"/>
<path d="M304.163 195.056C305.851 196.208 310.399 196.96 310.409 196.96C310.418 196.96 310.006 193.837 309.958 193.637C309.363 191.38 306.888 187.371 304.269 187.228C303.832 187.215 303.398 187.293 302.994 187.457C302.59 187.621 302.225 187.868 301.924 188.182C301.623 188.496 301.391 188.869 301.245 189.277C301.098 189.685 301.04 190.119 301.074 190.551C301.151 192.408 302.714 194.065 304.163 195.056Z" fill="#2E353A"/>
<path d="M349.762 204.856C349.762 204.856 351.173 201.999 351.24 201.837C351.998 199.637 352.199 194.933 350.06 193.371C349.703 193.122 349.297 192.95 348.869 192.866C348.441 192.783 347.999 192.79 347.574 192.887C347.149 192.984 346.749 193.169 346.4 193.429C346.051 193.69 345.762 194.021 345.551 194.4C344.591 195.98 344.975 198.209 345.627 199.828C346.443 201.723 349.762 204.856 349.762 204.856Z" fill="#2E353A"/>
<path d="M366.465 191.172C363.951 190.41 360.219 193.305 358.876 195.219C358.761 195.381 357.235 198.171 357.283 198.181H357.341C356.746 198.628 356.123 199.133 355.422 199.676C354.185 200.704 352.784 201.885 351.354 203.266C349.797 204.736 348.327 206.294 346.951 207.932C345.404 209.763 344.024 211.726 342.826 213.798V213.874C342.989 213.131 343.363 211.017 343.372 210.865C343.516 208.541 342.413 203.961 339.976 203.009C339.565 202.86 339.126 202.799 338.689 202.83C338.252 202.862 337.827 202.984 337.441 203.19C337.055 203.396 336.717 203.681 336.45 204.025C336.182 204.37 335.991 204.766 335.889 205.189C335.391 206.961 336.359 208.999 337.415 210.398C338.614 211.96 342.384 213.979 342.691 214.141C341.524 216.293 340.502 218.52 339.631 220.807C339.122 222.13 338.672 223.473 338.182 224.835C338.297 224.187 338.403 223.597 338.403 223.521C338.547 221.197 337.444 216.617 335.016 215.665C334.606 215.517 334.169 215.457 333.733 215.489C333.298 215.52 332.874 215.642 332.49 215.847C332.105 216.052 331.768 216.335 331.501 216.677C331.234 217.02 331.042 217.415 330.939 217.836C330.431 219.607 331.4 221.645 332.455 223.045C333.51 224.445 336.714 226.235 337.568 226.692L337.05 228.263C336.235 230.768 335.438 233.282 334.585 235.72C334.278 236.577 333.951 237.415 333.625 238.243C333.721 237.672 333.808 237.177 333.817 237.11C333.961 234.777 332.858 230.206 330.421 229.254C330.011 229.105 329.573 229.044 329.137 229.074C328.701 229.105 328.277 229.227 327.892 229.432C327.507 229.637 327.17 229.921 326.903 230.264C326.636 230.607 326.446 231.003 326.344 231.425C325.845 233.196 326.804 235.234 327.869 236.634C328.934 238.034 331.822 239.652 332.819 240.205C332.464 241.043 332.1 241.9 331.716 242.7C331.438 243.243 331.208 243.785 330.901 244.319C330.594 244.852 330.315 245.376 330.028 245.89C329.433 246.842 328.819 247.89 328.214 248.842C327.802 249.499 327.399 250.118 326.986 250.747C327.293 249.89 327.869 248.214 327.946 248.071C328.307 246.054 328.142 243.978 327.466 242.043C327.521 241.818 327.554 241.588 327.562 241.357C327.591 240.925 327.527 240.491 327.376 240.085C327.225 239.679 326.989 239.308 326.684 238.998C326.379 238.688 326.012 238.446 325.606 238.286C325.2 238.126 324.765 238.053 324.329 238.072C321.71 238.253 319.273 242.29 318.717 244.547C318.717 244.681 318.486 246.166 318.371 247.109C318.371 246.547 318.371 246.004 318.314 245.423C318.314 244.281 318.179 243.138 318.103 241.909C318.035 241.319 317.978 240.719 317.911 240.119C317.844 239.519 317.738 238.891 317.652 238.272C317.421 236.834 317.114 235.415 316.769 233.948C317.786 233.948 321.364 233.701 322.938 232.92C324.511 232.139 326.286 230.72 326.631 228.911C326.726 228.488 326.729 228.05 326.641 227.625C326.554 227.201 326.377 226.799 326.123 226.447C325.868 226.095 325.542 225.8 325.165 225.581C324.789 225.363 324.37 225.225 323.936 225.178C321.317 224.959 318.304 228.587 317.402 230.73C317.345 230.872 316.875 232.482 316.625 233.377C316.414 232.51 316.213 231.644 315.973 230.768C315.272 228.263 314.486 225.74 313.709 223.216L313.018 220.902C313.373 220.902 317.642 220.74 319.407 219.864C320.971 219.093 322.756 217.664 323.091 215.855C323.187 215.432 323.192 214.995 323.106 214.57C323.019 214.146 322.843 213.744 322.59 213.392C322.336 213.039 322.011 212.744 321.634 212.525C321.258 212.307 320.839 212.169 320.405 212.122C317.786 211.903 314.764 215.531 313.862 217.683C313.795 217.845 313.114 220.169 312.97 220.769C312.471 219.064 312.011 217.369 311.569 215.674C310.997 213.39 310.577 211.071 310.313 208.732C310.476 208.732 314.927 208.589 316.74 207.694C318.304 206.923 320.089 205.494 320.424 203.685C320.52 203.262 320.525 202.825 320.438 202.4C320.352 201.976 320.176 201.574 319.923 201.222C319.669 200.869 319.343 200.574 318.967 200.355C318.591 200.136 318.172 199.999 317.738 199.952C315.119 199.733 312.097 203.361 311.195 205.504C311.138 205.646 310.62 207.408 310.389 208.265H310.245C310.034 205.905 310.034 203.531 310.245 201.171C310.351 199.876 310.524 198.638 310.715 197.438C311.55 197.495 315.359 197.724 317.076 197.095C318.793 196.466 320.645 195.276 321.182 193.514C321.323 193.104 321.376 192.669 321.336 192.237C321.297 191.805 321.166 191.386 320.952 191.008C320.739 190.63 320.447 190.3 320.097 190.041C319.746 189.782 319.344 189.6 318.918 189.505C316.337 189.001 312.941 192.276 311.809 194.314C311.742 194.429 311.243 195.619 310.85 196.495C310.946 195.962 311.032 195.4 311.138 194.886C311.521 192.981 311.991 191.2 312.423 189.658C312.673 188.782 312.912 187.991 313.152 187.258C313.996 186.887 317.393 185.353 318.601 184.058C319.81 182.763 320.923 180.811 320.587 178.992C320.521 178.568 320.365 178.162 320.131 177.8C319.897 177.439 319.59 177.13 319.228 176.893C318.867 176.656 318.46 176.497 318.033 176.426C317.607 176.354 317.169 176.372 316.75 176.478C314.236 177.211 312.74 181.668 312.673 184.001C312.673 184.201 312.951 187.353 312.999 187.334C312.759 188.039 312.5 188.791 312.25 189.629C311.78 191.162 311.291 192.905 310.85 194.848C310.366 196.926 310.007 199.031 309.775 201.152C309.496 203.525 309.435 205.919 309.593 208.303C309.588 208.332 309.588 208.361 309.593 208.389C309.305 207.684 308.451 205.723 308.365 205.58C307.204 203.561 303.741 200.333 301.179 200.876C300.755 200.978 300.357 201.168 300.012 201.433C299.667 201.698 299.381 202.033 299.174 202.414C298.967 202.796 298.843 203.216 298.81 203.648C298.777 204.08 298.836 204.515 298.982 204.923C299.548 206.675 301.496 207.865 303.146 208.437C305.017 209.084 309.286 208.703 309.622 208.665C309.837 211.091 310.218 213.5 310.763 215.874C311.061 217.255 311.416 218.645 311.79 220.026C311.521 219.416 311.281 218.883 311.243 218.807C310.073 216.788 306.619 213.569 304.048 214.112C303.623 214.214 303.224 214.403 302.878 214.668C302.532 214.932 302.246 215.267 302.038 215.649C301.831 216.031 301.707 216.452 301.675 216.884C301.642 217.317 301.702 217.751 301.851 218.159C302.417 219.912 304.364 221.093 306.024 221.673C307.684 222.254 311.349 221.997 312.308 221.921C312.461 222.445 312.596 222.978 312.749 223.502C313.469 226.044 314.198 228.577 314.831 231.072C315.061 231.958 315.244 232.834 315.436 233.71C315.205 233.177 315.004 232.758 314.965 232.653C313.795 230.634 310.341 227.416 307.77 227.958C307.346 228.061 306.948 228.251 306.603 228.516C306.257 228.781 305.972 229.115 305.765 229.497C305.558 229.879 305.434 230.299 305.401 230.731C305.368 231.163 305.426 231.597 305.573 232.006C306.139 233.758 308.087 234.948 309.746 235.52C311.406 236.091 314.716 235.872 315.858 235.777C316.03 236.681 316.203 237.586 316.318 238.472C316.395 239.072 316.5 239.652 316.539 240.262C316.577 240.871 316.635 241.462 316.683 242.062C316.74 243.205 316.798 244.385 316.817 245.5C316.817 246.28 316.817 247.023 316.817 247.766C316.606 246.89 316.155 245.176 316.098 245.033C315.253 242.862 312.327 239.157 309.708 239.319C309.273 239.357 308.851 239.484 308.469 239.694C308.088 239.904 307.754 240.191 307.491 240.536C307.228 240.882 307.041 241.278 306.942 241.7C306.843 242.122 306.834 242.56 306.916 242.985C307.214 244.804 308.95 246.271 310.504 247.09C312.202 247.985 316.318 248.261 316.827 248.29C316.827 249.528 316.827 250.728 316.827 251.861C316.769 255.422 316.596 258.432 316.433 260.66L318.17 261.003C318.285 258.717 318.4 255.584 318.39 251.87C318.39 250.613 318.39 249.28 318.314 247.899C319.611 247.66 320.893 247.341 322.151 246.947C323.197 248.623 326.257 250.937 326.651 251.232C325.969 252.27 325.298 253.27 324.655 254.203C322.64 257.108 320.818 259.498 319.465 261.269L321.384 261.631C322.66 259.898 324.262 257.679 325.96 255.06C326.66 254.013 327.38 252.88 328.109 251.708C328.579 251.899 332.388 253.47 334.316 253.413C336.072 253.356 338.288 252.804 339.362 251.299C339.626 250.955 339.813 250.559 339.913 250.138C340.013 249.718 340.022 249.281 339.941 248.856C339.859 248.431 339.689 248.028 339.44 247.673C339.192 247.318 338.871 247.019 338.499 246.795C336.206 245.509 331.937 247.547 330.21 249.118C330.104 249.213 329.116 250.347 328.502 251.023C328.8 250.537 329.087 250.07 329.385 249.575C329.989 248.623 330.555 247.604 331.169 246.537L332.004 244.938C332.301 244.414 332.541 243.814 332.81 243.252C333.414 241.928 333.961 240.557 334.479 239.167C335.352 239.691 338.451 241.481 340.235 241.69C342.02 241.9 344.255 241.69 345.541 240.367C345.855 240.066 346.102 239.703 346.266 239.302C346.43 238.9 346.506 238.469 346.491 238.036C346.476 237.603 346.368 237.178 346.177 236.788C345.985 236.399 345.713 236.055 345.378 235.777C343.315 234.158 338.777 235.529 336.83 236.834C336.714 236.91 335.419 237.996 334.719 238.605C335.026 237.767 335.333 236.938 335.621 236.072C336.427 233.596 337.175 231.063 337.933 228.539C338.163 227.768 338.403 226.997 338.643 226.235C338.95 226.416 342.586 228.625 344.543 228.863C346.289 229.073 348.563 228.863 349.848 227.539C350.163 227.239 350.41 226.876 350.574 226.474C350.737 226.073 350.814 225.641 350.799 225.208C350.783 224.775 350.676 224.35 350.484 223.961C350.292 223.572 350.02 223.227 349.685 222.949C347.623 221.331 343.085 222.702 341.137 224.006C340.993 224.102 339.132 225.673 338.681 226.092C339.199 224.397 339.736 222.711 340.341 221.073C341.132 218.857 342.068 216.694 343.142 214.598C343.286 214.684 347.076 217.007 349.081 217.245C350.827 217.464 353.101 217.245 354.386 215.922C354.701 215.621 354.948 215.258 355.111 214.857C355.275 214.455 355.352 214.023 355.336 213.59C355.321 213.157 355.214 212.733 355.022 212.343C354.83 211.954 354.558 211.609 354.223 211.332C352.16 209.722 347.623 211.094 345.675 212.389C345.55 212.474 344.13 213.665 343.468 214.293L343.353 214.198C344.495 212.117 345.821 210.141 347.316 208.294C348.121 207.275 348.956 206.332 349.781 205.437C350.443 205.932 353.494 208.208 355.278 208.627C357.063 209.046 359.269 209.056 360.699 207.884C361.044 207.619 361.329 207.285 361.535 206.903C361.742 206.521 361.865 206.101 361.896 205.668C361.928 205.236 361.868 204.803 361.719 204.395C361.571 203.988 361.337 203.616 361.035 203.304C359.164 201.475 354.511 202.352 352.4 203.418C352.285 203.485 351.201 204.199 350.424 204.742C350.798 204.342 351.182 203.923 351.556 203.551C352.957 202.152 354.319 200.942 355.537 199.895C356.228 199.295 356.871 198.771 357.456 198.295C358.367 198.447 362.042 199.038 363.778 198.609C365.515 198.181 367.53 197.171 368.249 195.476C368.446 195.081 368.557 194.649 368.572 194.209C368.588 193.769 368.508 193.33 368.339 192.923C368.171 192.515 367.916 192.148 367.593 191.846C367.269 191.544 366.885 191.314 366.465 191.172Z" fill="#2E353A"/>
<path d="M342.73 260.27H271.324V269.65H342.73V260.27Z" fill="#2E353A"/>
<path d="M331.505 296.618H282.539L276.418 268.611H337.626L331.505 296.618Z" fill="#2E353A"/>
<path d="M25.6452 293.41H7.67578" stroke="#263238" stroke-miterlimit="10" stroke-linecap="round"/>
<path d="M288.53 293.41H34.2969" stroke="#263238" stroke-miterlimit="10" stroke-linecap="round"/>
<path d="M184.774 112.871C185.395 115.048 185.84 117.27 186.105 119.517C186.405 122.615 186.258 126.308 186.405 126.896C186.551 127.484 194.138 130.86 194.138 130.86L192.355 140.901C192.355 140.901 185.659 135.88 182.984 133.218C180.309 130.556 179.117 129.083 177.773 127.933C176.429 126.784 171.231 123.058 169.294 121.135C167.357 119.213 166.319 115.672 168.109 114.787C169.9 113.902 177.181 115.229 177.773 115.672C178.365 116.115 180.601 115.824 180.601 115.824L183.43 113.182L184.774 112.871Z" fill="white" stroke="#263238" stroke-miterlimit="10" stroke-linecap="round"/>
<path d="M161.867 107.996L177.188 124.98L186.259 121.287L173.175 105.043L161.867 107.996Z" fill="#263238" stroke="#263238" stroke-miterlimit="10" stroke-linecap="round"/>
<path d="M183.583 115.229C182.692 116.114 180.163 118.037 179.271 118.334C178.379 118.631 176.296 117.449 177.334 116.412C178.372 115.374 182.392 110.803 182.392 110.803C182.491 110.647 182.63 110.521 182.796 110.439C182.962 110.356 183.147 110.32 183.332 110.335C183.517 110.35 183.694 110.415 183.844 110.524C183.994 110.632 184.111 110.779 184.182 110.948C185.074 112.27 184.921 114.786 184.921 114.786" fill="white"/>
<path d="M183.583 115.229C182.692 116.114 180.163 118.037 179.271 118.334C178.379 118.631 176.296 117.449 177.334 116.412C178.372 115.374 182.392 110.803 182.392 110.803C182.491 110.647 182.63 110.521 182.796 110.439C182.962 110.356 183.147 110.32 183.332 110.335C183.517 110.35 183.694 110.415 183.844 110.524C183.994 110.632 184.111 110.779 184.182 110.948C185.074 112.27 184.921 114.786 184.921 114.786" stroke="#263238" stroke-miterlimit="10" stroke-linecap="round"/>
<path d="M166.739 112.957C166.739 112.957 165.707 117.846 166.512 118.506C166.706 118.645 166.933 118.732 167.17 118.759C167.408 118.785 167.648 118.75 167.868 118.657C168.087 118.564 168.279 118.416 168.424 118.227C168.569 118.039 168.663 117.816 168.695 117.581C168.695 116.656 169.727 113.75 169.041 112.693C168.356 111.636 167.458 111.372 166.739 112.957Z" fill="white" stroke="#263238" stroke-miterlimit="10" stroke-linecap="round"/>
<path d="M169.866 116.663C169.866 116.663 168.881 121.948 169.647 122.609C169.836 122.753 170.062 122.842 170.3 122.866C170.537 122.891 170.777 122.849 170.992 122.747C171.207 122.644 171.389 122.484 171.518 122.285C171.647 122.086 171.718 121.855 171.723 121.618C171.723 120.62 172.708 117.502 172.056 116.366C171.404 115.23 170.519 114.959 169.866 116.663Z" fill="white" stroke="#263238" stroke-miterlimit="10" stroke-linecap="round"/>
<path d="M172.243 118.281C172.243 118.281 171.258 123.566 172.024 124.227C172.217 124.359 172.441 124.438 172.675 124.456C172.909 124.475 173.143 124.431 173.355 124.331C173.566 124.23 173.747 124.076 173.879 123.884C174.011 123.691 174.09 123.468 174.107 123.236C174.107 122.238 175.092 119.114 174.433 117.951C173.774 116.788 172.902 116.584 172.243 118.281Z" fill="white" stroke="#263238" stroke-miterlimit="10" stroke-linecap="round"/>
<path d="M174.18 120.521C174.18 120.521 173.481 124.267 174.027 124.776C174.163 124.876 174.324 124.938 174.493 124.953C174.662 124.969 174.832 124.939 174.984 124.865C175.137 124.791 175.266 124.677 175.357 124.536C175.449 124.394 175.5 124.23 175.504 124.062C175.504 123.355 176.21 121.129 175.744 120.323C175.278 119.517 174.646 119.306 174.18 120.521Z" fill="white" stroke="#263238" stroke-miterlimit="10" stroke-linecap="round"/>
<path d="M203.668 132.063L192.953 129.85L189.686 145.5L200.248 148.307L203.668 132.063Z" fill="#0B83D9" stroke="#263238" stroke-miterlimit="10" stroke-linecap="round"/>
<path d="M244.054 284.281C244.054 284.281 243.861 291.462 243.861 292.446C243.861 293.431 239.495 294.217 236.327 294.124C233.159 294.032 228.002 294.217 224.827 293.728C221.538 293.349 218.228 293.185 214.917 293.239C212.921 293.239 212.142 289.989 214.252 288.317C216.361 286.646 221.573 286.336 224.661 285.166C227.749 283.997 229.22 280.74 229.22 280.74C231.947 280.823 234.665 281.119 237.346 281.625C239.71 282.151 241.975 283.048 244.054 284.281Z" fill="white" stroke="#263238" stroke-miterlimit="10" stroke-linecap="round"/>
<path d="M243.86 292.446C243.86 292.281 243.86 291.938 243.86 291.482C239.561 291.865 232.007 292.057 226.896 292.057C221.784 292.057 215.215 291.396 213.006 291.158C213.119 292.288 213.838 293.239 214.903 293.239C218.213 293.185 221.524 293.349 224.812 293.728C227.987 294.217 233.138 294.025 236.313 294.124C239.487 294.223 243.86 293.411 243.86 292.446Z" fill="white" stroke="#263238" stroke-miterlimit="10" stroke-linecap="round"/>
<path d="M235.056 244.525C235.056 244.525 241.379 261.041 242.71 267.977C244.041 274.914 244.041 284.823 244.041 284.823C244.041 284.823 240.048 284.493 238.051 283.502C236.054 282.511 234.391 281.52 234.391 281.52L235.056 244.525Z" fill="white" stroke="#263238" stroke-miterlimit="10" stroke-linecap="round"/>
<path d="M216.089 280.859C213.45 283.223 210.672 285.429 207.77 287.466C203.444 290.438 199.451 291.76 200.782 293.411C202.113 295.063 204.109 296.714 213.427 296.714C222.744 296.714 231.064 295.723 233.06 294.402C235.057 293.081 233.393 284.823 233.393 284.823L216.089 280.859Z" fill="white" stroke="#263238" stroke-miterlimit="10" stroke-linecap="round"/>
<path d="M233.998 291.872C231.972 292.489 229.9 292.946 227.802 293.239C223.243 293.827 209.466 294.217 205.999 293.14C204.545 292.761 203.226 291.991 202.185 290.914C200.788 291.832 200.109 292.579 200.781 293.411C202.112 295.063 204.109 296.714 213.426 296.714C222.744 296.714 231.063 295.723 233.059 294.402C233.638 294.019 233.905 293.054 233.998 291.872Z" fill="white" stroke="#263238" stroke-miterlimit="10" stroke-linecap="round"/>
<path d="M200.116 151.377C200.116 151.377 197.121 193.987 198.452 209.842C199.783 225.697 206.439 242.542 210.099 250.139C213.76 257.736 215.091 271.609 215.423 272.6C215.756 273.591 214.758 274.912 214.758 274.912C214.758 274.912 214.092 273.921 214.092 276.564C214.16 278.669 214.383 280.767 214.758 282.84C214.758 282.84 221.08 286.143 225.406 288.125C228.189 289.333 231.21 289.902 234.245 289.789C234.245 289.789 237.053 283.183 238.052 277.555C239.05 271.926 237.053 257.076 236.388 250.139C235.722 243.203 240.048 191.345 240.048 187.381C240.048 183.417 241.379 170.535 239.05 160.296C236.72 150.056 221.08 149.395 213.094 147.083C205.108 144.771 199.783 147.744 200.116 151.377Z" fill="white" stroke="#263238" stroke-miterlimit="10" stroke-linecap="round"/>
<path d="M225.406 288.126C225.632 288.231 225.865 288.324 226.071 288.416C226.504 284.882 227.096 279.062 226.384 274.345C224.71 262.353 223.848 250.263 223.802 238.157C223.802 223.187 220.281 202.721 217.266 189.747C214.438 177.578 217.266 149.614 217.3 149.337L213.972 149C213.845 150.169 211.05 177.79 214.005 190.487C216.98 203.289 220.454 223.465 220.454 238.157C220.502 250.427 221.378 262.68 223.076 274.834C223.655 278.672 223.249 283.614 222.877 286.95C223.775 287.366 224.64 287.769 225.406 288.126Z" fill="#263238"/>
<path d="M221.372 276.294L221.625 275.798L221.525 275.256C221.525 275.171 219.888 266.444 218.29 253.747C217.771 249.651 217.245 243.395 216.68 236.762C215.422 221.859 214.018 204.967 211.722 197.991C208.6 188.366 208.88 163.639 208.88 163.375H208.767C209.519 154.985 210.158 148.498 210.171 148.359L206.843 148.035C206.81 148.332 203.908 177.598 203.263 192.627C202.917 200.746 205.206 215.517 207.256 228.544C207.682 231.266 208.094 233.955 208.48 236.511C207.549 233.175 206.484 229.297 205.259 224.832C200.461 207.154 202.91 156.286 205.585 152.342C205.47 152.471 205.328 152.573 205.17 152.644C205.012 152.715 204.84 152.751 204.667 152.752L204.587 149.449C204.256 149.461 203.932 149.551 203.642 149.71C203.351 149.87 203.103 150.095 202.917 150.367C199.316 155.137 197.206 207.841 202.045 225.677C203.702 231.768 205.099 236.769 206.224 240.786C206.324 241.129 206.417 241.446 206.51 241.803C207.841 245.152 209.079 247.999 210.104 250.127C212.101 254.249 213.392 260.214 214.217 264.977C214.058 262.064 213.791 258.219 213.419 255.643C213.419 255.438 213.359 255.233 213.319 254.982C213.279 254.731 213.385 254.678 213.412 254.513C214.078 250.728 212.44 240.191 210.544 227.996C208.547 215.114 206.277 200.521 206.61 192.719C206.657 191.768 206.703 190.737 206.763 189.713C207.081 192.844 207.685 195.94 208.567 198.962C210.717 205.568 212.187 223.002 213.372 237C213.938 243.666 214.47 249.955 214.996 254.117C216.38 265.116 217.778 273.175 218.157 275.256C216.913 277.738 215.927 280.339 215.216 283.019L218.324 284.611C218.457 282.721 220.234 278.559 221.372 276.294Z" fill="#263238"/>
<path d="M234.117 289.797C235.193 282.95 235.769 276.035 235.841 269.106C235.841 260.849 235.116 248.132 234.47 236.915C234.257 233.175 234.057 229.615 233.891 226.464C233.658 221.991 233.226 216.977 232.773 211.672C231.948 201.975 231.089 191.953 231.296 183.709C231.615 170.939 231.622 153.855 231.622 153.684H228.294C228.294 153.855 228.294 170.899 227.968 183.623C227.755 192.052 228.633 202.166 229.459 211.95C229.911 217.235 230.337 222.216 230.57 226.635C230.73 229.793 230.936 233.36 231.149 237.099C231.815 248.277 232.513 260.948 232.513 269.106C232.43 275.978 231.85 282.835 230.776 289.625C231.883 289.779 233.001 289.836 234.117 289.797Z" fill="#263238"/>
<path d="M237.464 193.34C237.464 183.715 238.19 163.725 238.389 158.328C238.17 157.842 237.915 157.374 237.624 156.927L235.115 156.828C235.115 157.079 234.137 182.136 234.137 193.327C234.137 203.897 236.366 233.109 236.706 237.443C237.092 230.262 237.711 221.172 238.316 212.696C237.844 205.086 237.464 197.621 237.464 193.34Z" fill="#263238"/>
<path d="M230.969 273.302C230.969 268.05 230.303 261.12 229.564 253.787C228.819 246.223 228.047 238.408 228.047 232.35C228.055 216.633 226.963 200.934 224.779 185.367C222.563 169.949 223.967 153.598 224.367 149.621C223.269 149.351 222.177 149.106 221.099 148.875C220.753 152.178 219.136 169.48 221.485 185.869C223.648 201.281 224.728 216.823 224.719 232.383C224.719 238.6 225.498 246.501 226.25 254.137C226.969 261.404 227.641 268.248 227.641 273.335C227.692 278.42 227.192 283.497 226.15 288.476C227.187 288.885 228.258 289.201 229.351 289.421C230.487 284.123 231.029 278.718 230.969 273.302Z" fill="#263238"/>
<path d="M208.415 102.123C208.415 102.123 200.961 116.029 200.961 120.739C200.961 125.45 202.545 126.791 202.545 129.704C202.545 132.617 197.121 146.973 197.121 150.11C197.121 153.248 203.444 153.698 205.48 153.698H209.999C212.248 154.81 214.715 155.424 217.227 155.494C221.067 155.494 226.265 157.06 228.541 158.632C230.817 160.205 240.52 165.133 240.52 165.133C240.52 165.133 242.783 163.343 241.852 157.285C240.92 151.227 238.238 147.197 238.69 143.161C239.143 139.124 239.815 118.493 239.815 109.747C239.815 101 235.296 93.6014 231.23 90.6881C227.163 87.7748 218.585 91.5865 215.869 94.7245C213.154 97.8624 208.415 102.123 208.415 102.123Z" fill="#0B83D9" stroke="#263238" stroke-miterlimit="10" stroke-linecap="round"/>
<path d="M204.508 147.342L209.998 153.697" stroke="#263238" stroke-miterlimit="10" stroke-linecap="round"/>
<path d="M201.865 144.283L203.329 145.974" stroke="#263238" stroke-miterlimit="10" stroke-linecap="round"/>
<path d="M221.412 96.5476C221.412 96.5476 214.091 109.76 214.091 128.918C214.091 148.076 211.762 173.84 211.762 173.84L239.714 170.867C239.714 170.867 242.41 132.333 237.385 112.072C232.36 91.811 224.74 92.584 221.412 96.5476Z" stroke="#263238" stroke-width="2" stroke-miterlimit="10" stroke-linecap="round"/>
<path d="M212.76 170.206C212.76 170.206 210.43 190.025 213.092 192.667C215.755 195.31 236.053 192.007 239.714 191.346C243.374 190.685 242.928 185.4 242.596 182.097C242.263 178.794 240.492 165.133 240.492 165.133L212.76 170.206Z" fill="white" stroke="#263238" stroke-miterlimit="10" stroke-linecap="round"/>
<path d="M212.76 170.206C212.76 170.206 212.76 181.437 219.082 182.758C225.405 184.079 237.717 182.758 239.381 178.794C241.045 174.831 240.493 165.133 240.493 165.133L212.76 170.206Z" fill="#263238" stroke="#263238" stroke-miterlimit="10" stroke-linecap="round"/>
<path d="M222.976 39.2719C222.976 39.2719 212.114 38.6112 205.166 43.1497C198.218 47.6881 203.429 53.7195 204.733 55.0407C206.038 56.362 208.42 59.3546 213.419 59.3546C218.417 59.3546 228.839 57.1944 230.356 50.2975C231.874 43.4007 222.976 39.2719 222.976 39.2719Z" fill="#263238" stroke="#263238" stroke-miterlimit="10" stroke-linecap="round"/>
<path d="M217.546 49.6426C217.546 49.6426 209.074 52.6616 207.124 55.6806C205.174 58.6996 205.167 62.5774 204.515 64.0902C203.863 65.603 199.084 67.5386 199.084 68.6154C199.084 69.6922 202.778 72.7113 202.778 72.7113C202.778 72.7113 202.997 85.5206 204.295 85.6461C206.758 85.8019 209.221 85.3478 211.463 84.3249L216.022 97.0417C216.022 97.0417 222.757 81.9533 224.927 75.4858C227.096 69.0184 227.536 54.7954 225.592 52.4238C223.649 50.0522 217.546 49.6426 217.546 49.6426Z" fill="white" stroke="#263238" stroke-miterlimit="10" stroke-linecap="round"/>
<path d="M208.615 63.8197C208.349 64.8569 207.803 65.6166 207.397 65.5109C206.991 65.4052 206.878 64.4803 207.144 63.4432C207.41 62.406 207.956 61.6463 208.362 61.752C208.768 61.8577 208.888 62.7826 208.615 63.8197Z" fill="#263238"/>
<path d="M205.6 73.9816C205.6 73.9816 209.946 75.7058 212.335 72.4688" stroke="#263238" stroke-miterlimit="10" stroke-linecap="round"/>
<path d="M207.557 59.5535C207.557 59.5535 208.422 56.7525 210.598 59.5535" stroke="#263238" stroke-miterlimit="10" stroke-linecap="round"/>
<path d="M206.904 66.8662L209.946 66.2188" stroke="#263238" stroke-miterlimit="10" stroke-linecap="round"/>
<path d="M213.42 48.3223C213.42 48.3223 215.589 47.2389 217.326 51.3347C219.063 55.4305 219.935 69.0128 216.241 82.3836C212.548 95.7545 205.387 106.311 206.258 111.92C207.13 117.528 212.554 122.265 216.241 113.426C219.929 104.587 221.02 94.8891 226.451 92.7354C231.881 90.5818 233.998 96.5076 236.387 102.328C238.776 108.148 238.83 125.066 238.177 133.476C237.525 141.885 238.61 146.622 242.517 145.545C246.423 144.468 251.422 143.391 251.209 136.296C250.996 129.201 247.515 126.599 248.6 124.009C249.684 121.419 257.285 115.17 255.548 107.196C253.811 99.2227 246.43 96.8511 244.041 87.576C241.651 78.301 247.947 66.0202 245.991 57.1877C244.034 48.3553 236.673 41.2405 230.138 38.8689C223.602 36.4973 213.42 40.8111 211.896 44.4709" fill="#263238"/>
<path d="M213.42 48.3223C213.42 48.3223 215.589 47.2389 217.326 51.3347C219.063 55.4305 219.935 69.0128 216.241 82.3836C212.548 95.7545 205.387 106.311 206.258 111.92C207.13 117.528 212.554 122.265 216.241 113.426C219.929 104.587 221.02 94.8891 226.451 92.7354C231.881 90.5818 233.998 96.5076 236.387 102.328C238.776 108.148 238.83 125.066 238.177 133.476C237.525 141.885 238.61 146.622 242.517 145.545C246.423 144.468 251.422 143.391 251.209 136.296C250.996 129.201 247.515 126.599 248.6 124.009C249.684 121.419 257.285 115.17 255.548 107.196C253.811 99.2227 246.43 96.8511 244.041 87.576C241.651 78.301 247.947 66.0202 245.991 57.1877C244.034 48.3553 236.673 41.2405 230.138 38.8689C223.602 36.4973 213.42 40.8111 211.896 44.4709" stroke="#263238" stroke-miterlimit="10" stroke-linecap="round"/>
<path d="M211.995 96.9238C209.773 100.537 209.273 102.156 209.273 102.156" stroke="#7A7A7A" stroke-miterlimit="10" stroke-linecap="round"/>
<path d="M226.484 47.9121C228.275 49.8147 229.186 53.8576 228.787 62.9741C228.121 77.5671 223.19 81.3723 216.807 89.9404C215.643 91.4995 214.651 92.9 213.812 94.142" stroke="#7A7A7A" stroke-miterlimit="10" stroke-linecap="round"/>
<path d="M215.203 47.9071C216.227 47.1619 217.389 46.6244 218.622 46.3251C219.855 46.0259 221.136 45.9708 222.391 46.163C223.234 46.2609 224.059 46.4697 224.847 46.784" stroke="#7A7A7A" stroke-miterlimit="10" stroke-linecap="round"/>
<path d="M237.245 67.731C237.651 66.4693 238.03 65.2471 238.376 64.0844C240.613 56.4675 238.696 42.6673 232.3 42.3502C225.904 42.0331 214.244 47.1132 214.244 47.1132C214.244 47.1132 212.807 48.6987 212.807 49.4914C212.807 50.2842 213.925 50.7598 213.925 50.7598" stroke="#7A7A7A" stroke-miterlimit="10" stroke-linecap="round"/>
<path d="M244.028 100.042C240.287 95.2724 235.649 90.7538 234.218 87.4045C232.734 83.923 234.071 78.1558 235.795 72.3887" stroke="#7A7A7A" stroke-miterlimit="10" stroke-linecap="round"/>
<path d="M246.835 128.647C245.045 126.943 243.108 126.005 243.328 124.023C243.647 121.162 251.001 115.613 248.758 108.168C248.037 106.038 246.986 104.032 245.644 102.223" stroke="#7A7A7A" stroke-miterlimit="10" stroke-linecap="round"/>
<path d="M248.919 131.501C248.733 131.082 248.51 130.68 248.254 130.299" stroke="#7A7A7A" stroke-miterlimit="10" stroke-linecap="round"/>
<path d="M205.34 52.4121C205.636 52.9541 206.055 53.4201 206.564 53.773" stroke="#7A7A7A" stroke-miterlimit="10" stroke-linecap="round"/>
<path d="M215.204 46.796C215.204 46.796 211.21 44.2592 207.37 46.4789C206.782 46.7786 206.262 47.1946 205.842 47.7013C205.422 48.208 205.111 48.7947 204.928 49.4252" stroke="#7A7A7A" stroke-miterlimit="10" stroke-linecap="round"/>
<path d="M239.662 271.365C239.662 276.61 239.349 281.063 239.076 283.917C240.148 284.245 241.245 284.484 242.357 284.63C242.643 281.75 242.99 277.053 242.99 271.378C242.99 270.784 242.99 270.169 242.99 269.548C242.99 268.927 242.816 268.491 242.723 267.989C241.767 263.854 240.567 259.777 239.129 255.781C239.376 260.293 239.662 266.364 239.662 271.365Z" fill="#263238"/>
<path d="M234.391 281.52L235.129 281.95C235.515 278.184 235.841 273.666 235.841 269.107C235.841 263.162 235.469 254.95 235.016 246.646L234.391 281.52Z" fill="#263238"/>
<path d="M205.932 166.48C205.932 166.48 199.376 178.14 197.799 178.814C196.221 179.488 188.535 181.952 188.535 181.952C188.535 181.952 182.212 187.561 181.533 189.351C180.854 191.141 182.665 190.923 182.665 190.923C182.665 190.923 181.999 193.612 183.117 193.612C183.467 193.612 183.813 193.531 184.126 193.375C184.439 193.219 184.711 192.992 184.921 192.714C184.921 192.714 185.147 194.735 186.052 194.035C186.814 193.369 187.496 192.618 188.082 191.795C188.082 191.795 187.629 194.035 189.413 192.912C191.197 191.789 193.479 187.759 193.479 187.759C193.479 187.759 197.998 186.187 198.904 185.737C199.809 185.288 202.517 180.578 202.517 180.578L215.828 170.266L205.932 166.48Z" fill="white" stroke="#263238" stroke-miterlimit="10" stroke-linecap="round"/>
<path d="M182.666 190.923C182.666 190.923 186.593 185.261 187.524 184.264" stroke="#263238" stroke-miterlimit="10" stroke-linecap="round"/>
<path d="M184.922 192.712C184.922 192.712 188.143 186.417 189.381 185.029" stroke="#263238" stroke-miterlimit="10" stroke-linecap="round"/>
<path d="M188.082 191.821C188.082 191.821 190.545 186.8 191.703 185.492" stroke="#263238" stroke-miterlimit="10" stroke-linecap="round"/>
<path d="M220.16 110.419L220.826 136.435L205.918 166.479L216.447 176.95C216.447 176.95 233.165 153.168 234.742 150.228C236.32 147.288 238.223 142.71 238.223 137.776C238.223 132.841 237.997 109.97 237.77 106.832C237.544 103.694 235.96 93.8248 232.346 91.8099C228.732 89.7951 220.6 93.7918 219.701 101.673" fill="#0B83D9"/>
<path d="M220.16 110.419L220.826 136.435L205.918 166.479L216.447 176.95C216.447 176.95 233.165 153.168 234.742 150.228C236.32 147.288 238.223 142.71 238.223 137.776C238.223 132.841 237.997 109.97 237.77 106.832C237.544 103.694 235.96 93.8248 232.346 91.8099C228.732 89.7951 220.6 93.7918 219.701 101.673" stroke="#263238" stroke-miterlimit="10" stroke-linecap="round"/>
<path d="M129.827 5.95508H31.3646C26.1927 5.95508 22 10.1168 22 15.2505V209.658C22 214.792 26.1927 218.953 31.3646 218.953H129.827C134.999 218.953 139.192 214.792 139.192 209.658V15.2505C139.192 10.1168 134.999 5.95508 129.827 5.95508Z" fill="#263238" stroke="#263238" stroke-width="0.804051" stroke-miterlimit="10" stroke-linecap="round"/>
<path d="M130.732 26.3359H30.166V202.014H130.732V26.3359Z" fill="#E5E5E5" stroke="#263238" stroke-width="0.804051" stroke-miterlimit="10" stroke-linecap="round"/>
<path d="M130.732 26.3359H30.166V36.3378H130.732V26.3359Z" fill="#263238" stroke="#263238" stroke-width="0.804051" stroke-miterlimit="10" stroke-linecap="round"/>
<path d="M130.732 33.7305H30.166V47.4718H130.732V33.7305Z" fill="#0B83D9" stroke="#263238" stroke-width="0.804051" stroke-miterlimit="10" stroke-linecap="round"/>
<path d="M35.668 38.707H41.0513" stroke="#263238" stroke-width="1.6081" stroke-miterlimit="10" stroke-linecap="round"/>
<path d="M35.668 41.2891H41.0513" stroke="#263238" stroke-width="1.6081" stroke-miterlimit="10" stroke-linecap="round"/>
<path d="M35.668 43.8691H41.0513" stroke="#263238" stroke-width="1.6081" stroke-miterlimit="10" stroke-linecap="round"/>
<path d="M119.814 38.707H124.796" stroke="#263238" stroke-width="1.6081" stroke-miterlimit="10" stroke-linecap="round"/>
<path d="M120.447 41.2891H124.798" stroke="#263238" stroke-width="1.6081" stroke-miterlimit="10" stroke-linecap="round"/>
<path d="M122.629 43.8691H124.796" stroke="#263238" stroke-width="1.6081" stroke-miterlimit="10" stroke-linecap="round"/>
<path d="M126.198 56.4785H35.4199V134.141H126.198V56.4785Z" fill="white"/>
<path d="M126.198 140.049H35.4199V201.069H126.198V140.049Z" fill="white"/>
<path d="M37.582 201.07V160.701H124.031V201.07" stroke="#CCCCCC" stroke-width="0.804051" stroke-miterlimit="10" stroke-linecap="round"/>
<path d="M122.603 113.25H38.7656V129.541H122.603V113.25Z" fill="#E8E8E8"/>
<path d="M122.602 113.957H106.549V129.536H122.602V113.957Z" fill="#D4D4D4"/>
<path d="M112.137 119.768H110.018V123.794H112.137V119.768Z" fill="#263238"/>
<path d="M118.027 119.869H116.047V118.35C116.047 117.994 115.849 116.927 115.255 116.836C114.661 116.746 114.763 117.102 114.763 117.638C114.647 118.284 114.447 118.913 114.169 119.508L112.783 119.667V123.816C113.96 123.89 117.401 124.097 117.728 123.88C118.054 123.662 118.027 121.027 118.027 121.027C118.167 120.866 118.244 120.661 118.244 120.448C118.244 120.236 118.167 120.03 118.027 119.869Z" fill="#263238"/>
<path d="M36.3839 29.3955C36.3839 30.1551 35.5224 30.426 35.5224 30.989V31.0262H36.3518V31.2865H35.2441V31.0687C35.2441 30.256 36.1003 30.0967 36.1003 29.3902C36.1003 29.1299 36.0147 28.9918 35.806 28.9918C35.5973 28.9918 35.5063 29.1406 35.5063 29.3637V29.5867H35.2441V29.3796C35.2441 28.9971 35.4207 28.7422 35.8114 28.7422C36.202 28.7422 36.3839 29.0078 36.3839 29.3955Z" fill="white"/>
<path d="M37.7707 29.3894V29.4531C37.7811 29.562 37.7575 29.6715 37.7029 29.7666C37.6483 29.8617 37.5654 29.9377 37.4657 29.9843C37.5692 30.026 37.6556 30.101 37.7109 30.1974C37.7662 30.2937 37.7873 30.4058 37.7707 30.5154V30.7067C37.7707 31.0944 37.5887 31.3441 37.1981 31.3441C36.8075 31.3441 36.6309 31.0944 36.6309 30.7067V30.5367H36.8931V30.7279C36.8931 30.951 36.9894 31.0891 37.1927 31.0891C37.3961 31.0891 37.5192 30.9191 37.5192 30.6801V30.4836C37.5192 30.2392 37.4121 30.1171 37.1981 30.1117H37.0429V29.8568H37.2141C37.2578 29.8564 37.3009 29.8468 37.3406 29.8287C37.3802 29.8106 37.4156 29.7844 37.4444 29.7518C37.4732 29.7193 37.4947 29.681 37.5076 29.6396C37.5205 29.5982 37.5244 29.5545 37.5192 29.5115V29.3947C37.5192 29.1344 37.4282 29.0016 37.2195 29.0016C37.0108 29.0016 36.9198 29.145 36.9198 29.3681V29.5009H36.6576V29.384C36.6576 29.0016 36.8396 28.752 37.2248 28.752C37.6101 28.752 37.7707 29.0069 37.7707 29.3894Z" fill="white"/>
<path d="M38.3203 29.582V29.9326H38.0527V29.582H38.3203ZM38.3203 30.9524V31.303H38.0527V30.9524H38.3203Z" fill="white"/>
<path d="M38.8949 29.8095C38.9309 29.7427 38.9852 29.6874 39.0514 29.6499C39.1177 29.6123 39.1932 29.594 39.2694 29.597C39.5959 29.597 39.7404 29.836 39.7404 30.1972V30.6859C39.7404 31.0736 39.5584 31.3233 39.1678 31.3233C38.7771 31.3233 38.5898 31.0736 38.5898 30.6859V30.5212H38.8521V30.7071C38.8521 30.9302 38.9484 31.0683 39.1517 31.0683C39.3551 31.0683 39.446 30.9302 39.446 30.7071V30.2185C39.446 29.9901 39.3551 29.8519 39.1517 29.8519C39.1147 29.8505 39.0778 29.8564 39.0432 29.8694C39.0085 29.8823 38.9768 29.9019 38.9499 29.9271C38.923 29.9524 38.9014 29.9827 38.8865 30.0163C38.8715 30.0499 38.8634 30.0861 38.8628 30.1228V30.1813H38.5898L38.6808 28.7949H39.6601V29.0446H38.9109L38.8949 29.8095Z" fill="white"/>
<path d="M41.152 29.3865V29.4343H40.8844V29.3706C40.8844 29.1422 40.7881 29.0094 40.5847 29.0094C40.3814 29.0094 40.2744 29.1475 40.2744 29.4184V29.9815C40.305 29.8986 40.3615 29.8277 40.4356 29.779C40.5098 29.7302 40.5976 29.7063 40.6864 29.7106C41.0128 29.7106 41.1573 29.9443 41.1573 30.3108V30.6879C41.1573 31.0757 40.9647 31.3253 40.5794 31.3253C40.1941 31.3253 39.9961 31.0757 39.9961 30.6879V29.4078C39.9961 29.0094 40.1727 28.7598 40.5794 28.7598C40.9861 28.7598 41.152 29.0041 41.152 29.3865ZM40.2744 30.332V30.7092C40.2744 30.9322 40.3707 31.0703 40.5794 31.0703C40.7881 31.0703 40.879 30.9322 40.879 30.7092V30.332C40.879 30.1036 40.7774 29.9655 40.5794 29.9655C40.3814 29.9655 40.2744 30.1036 40.2744 30.332Z" fill="white"/>
<path d="M104.447 28.9551H103.414V31.5206H104.447V28.9551Z" fill="white"/>
<path d="M105.822 28.4434H104.789V31.5188H105.822V28.4434Z" fill="white"/>
<path d="M107.203 28.0781H106.17V31.5201H107.203V28.0781Z" fill="white"/>
<path d="M108.578 27.4473H107.545V31.5266H108.578V27.4473Z" fill="white"/>
<path d="M125.112 31.4521H118.91V27.6914H125.112V31.4521ZM119.253 31.1121H124.743V28.0314H119.231L119.253 31.1121Z" fill="white"/>
<path d="M123.041 28.4023H119.771V30.7342H123.041V28.4023Z" fill="white"/>
<path d="M125.674 29.1289H124.893V30.016H125.674V29.1289Z" fill="white"/>
<path d="M115.031 30.6339C114.99 30.6332 114.949 30.6223 114.914 30.602C114.606 30.3728 114.232 30.2467 113.848 30.2419C113.463 30.2371 113.087 30.3539 112.773 30.5754C112.752 30.5968 112.726 30.6137 112.698 30.6253C112.67 30.6369 112.64 30.6428 112.61 30.6428C112.579 30.6428 112.549 30.6369 112.521 30.6253C112.493 30.6137 112.468 30.5968 112.447 30.5754C112.404 30.5319 112.381 30.4738 112.381 30.4134C112.381 30.353 112.404 30.295 112.447 30.2514C112.834 29.9676 113.303 29.8145 113.784 29.8145C114.266 29.8145 114.735 29.9676 115.122 30.2514C115.176 30.2825 115.215 30.3335 115.231 30.3932C115.247 30.453 115.239 30.5166 115.208 30.5701C115.159 30.6132 115.096 30.6361 115.031 30.6339Z" fill="white"/>
<path d="M115.502 29.858C115.459 29.8583 115.417 29.8473 115.379 29.8261C113.56 28.7638 112.329 29.7943 112.318 29.8261C112.274 29.868 112.216 29.8914 112.155 29.8914C112.094 29.8914 112.036 29.868 111.992 29.8261C111.97 29.8049 111.953 29.7797 111.941 29.7519C111.93 29.7241 111.924 29.6942 111.924 29.6641C111.924 29.634 111.93 29.6042 111.941 29.5764C111.953 29.5486 111.97 29.5234 111.992 29.5021C111.992 29.5021 113.485 28.2273 115.598 29.5021C115.65 29.534 115.687 29.5844 115.702 29.6428C115.717 29.7012 115.709 29.7631 115.679 29.8155C115.654 29.8341 115.625 29.8475 115.595 29.8548C115.564 29.8621 115.533 29.8632 115.502 29.858Z" fill="white"/>
<path d="M115.925 28.9649C115.884 28.965 115.843 28.954 115.807 28.9331C113.496 27.568 111.96 28.8534 111.896 28.9065C111.849 28.9467 111.789 28.967 111.728 28.963C111.667 28.959 111.61 28.931 111.569 28.8853C111.529 28.8395 111.508 28.7796 111.512 28.7189C111.516 28.6581 111.544 28.6014 111.591 28.5612C111.591 28.5612 113.431 26.9996 116.043 28.5612C116.069 28.5766 116.091 28.5968 116.11 28.6209C116.128 28.6449 116.141 28.6723 116.148 28.7014C116.156 28.7305 116.157 28.7608 116.153 28.7905C116.149 28.8203 116.138 28.8488 116.123 28.8746C116.099 28.9041 116.069 28.9276 116.035 28.9433C116 28.959 115.963 28.9664 115.925 28.9649Z" fill="white"/>
<path d="M113.757 31.5935C114.079 31.5935 114.34 31.3343 114.34 31.0145C114.34 30.6948 114.079 30.4355 113.757 30.4355C113.435 30.4355 113.174 30.6948 113.174 31.0145C113.174 31.3343 113.435 31.5935 113.757 31.5935Z" fill="white"/>
<path d="M121.282 43.1374C120.452 42.8125 119.595 42.5636 118.719 42.3937L118.553 41.7404C119.006 41.2568 119.248 40.6155 119.227 39.9557C119.227 38.7552 118.526 37.7832 117.66 37.7832C116.793 37.7832 116.097 38.7552 116.097 39.9557C116.08 40.3178 116.147 40.679 116.292 41.0114C116.438 41.3439 116.659 41.6387 116.937 41.8732L116.809 42.4044C115.933 42.5742 115.075 42.8231 114.245 43.148C113.71 43.4667 113.817 44.8424 113.817 44.8424H121.71C121.71 44.8424 121.817 43.4614 121.282 43.1374Z" fill="#263238"/>
<path d="M35.2012 63.3203H126.172" stroke="#CCCCCC" stroke-width="0.804051" stroke-miterlimit="10" stroke-linecap="round"/>
<path d="M38.7656 83.8613H102.269" stroke="#263238" stroke-width="0.804051" stroke-miterlimit="10" stroke-linecap="round"/>
<path d="M45.5456 79.6121C49.2901 79.6121 52.3256 76.5991 52.3256 72.8822C52.3256 69.1654 49.2901 66.1523 45.5456 66.1523C41.8011 66.1523 38.7656 69.1654 38.7656 72.8822C38.7656 76.5991 41.8011 79.6121 45.5456 79.6121Z" fill="#0B83D9"/>
<path d="M45.5457 79.6112C46.6574 79.6131 47.7525 79.3433 48.7341 78.8254C49.7158 78.3075 50.5539 77.5576 51.1744 76.642C51.7948 75.7263 52.1785 74.6731 52.2916 73.5753C52.4047 72.4775 52.2436 71.369 51.8226 70.3477C50.5544 72.0421 48.9116 73.8374 46.9316 74.1402C43.3195 74.6714 44.4326 72.2067 42.763 72.483C41.9764 72.6157 40.569 74.0393 39.3008 75.5053C39.8214 76.7222 40.6909 77.7602 41.8013 78.4903C42.9117 79.2203 44.2138 79.6101 45.5457 79.6112Z" fill="#263238"/>
<path d="M56.248 70.0508H83.0041" stroke="#263238" stroke-width="1.6081" stroke-miterlimit="10" stroke-linecap="round"/>
<path d="M40.5527 60.1348H67.3088" stroke="#CCCCCC" stroke-width="0.804051" stroke-miterlimit="10" stroke-linecap="round"/>
<path d="M56.248 74.6523H69.091" stroke="#263238" stroke-width="0.804051" stroke-miterlimit="10" stroke-linecap="round"/>
<path d="M51.8118 172.486C53.2448 169.052 51.602 165.115 48.1425 163.693C44.6831 162.271 40.717 163.901 39.284 167.335C37.8511 170.769 39.4939 174.706 42.9534 176.128C46.4128 177.551 50.3789 175.92 51.8118 172.486Z" fill="#263238"/>
<path d="M45.5447 173.099C47.318 173.099 48.7554 171.672 48.7554 169.912C48.7554 168.151 47.318 166.725 45.5447 166.725C43.7715 166.725 42.334 168.151 42.334 169.912C42.334 171.672 43.7715 173.099 45.5447 173.099Z" fill="#0B83D9"/>
<path d="M56.248 167.074H83.0041" stroke="#263238" stroke-width="1.6081" stroke-miterlimit="10" stroke-linecap="round"/>
<path d="M56.248 171.68H69.091" stroke="#263238" stroke-width="0.804051" stroke-miterlimit="10" stroke-linecap="round"/>
<path d="M43.0469 117.855H69.803" stroke="#263238" stroke-width="1.6081" stroke-miterlimit="10" stroke-linecap="round"/>
<path d="M43.0469 122.455H55.8898" stroke="#263238" stroke-width="0.804051" stroke-miterlimit="10" stroke-linecap="round"/>
<path d="M43.0469 127.062H81.9342" stroke="#263238" stroke-width="0.804051" stroke-miterlimit="10" stroke-linecap="round"/>
<path d="M43.0469 181.24H111.542" stroke="#263238" stroke-width="0.804051" stroke-miterlimit="10" stroke-linecap="round"/>
<path d="M43.0469 186.908H79.082" stroke="#263238" stroke-width="0.804051" stroke-miterlimit="10" stroke-linecap="round"/>
<path d="M43.0469 146.539H95.8474" stroke="#263238" stroke-width="0.804051" stroke-miterlimit="10" stroke-linecap="round"/>
<path d="M43.0469 151.494H74.084" stroke="#263238" stroke-width="0.804051" stroke-miterlimit="10" stroke-linecap="round"/>
<path d="M122.603 88.1113H38.7656V113.958H122.603V88.1113Z" fill="white"/>
<path d="M122.603 88.1113V102.198L105.479 91.6489L85.8564 105.109L66.2388 96.2541L38.7656 113.958V88.1113H122.603Z" fill="#0B83D9"/>
<path d="M51.9667 96.6093C51.9667 97.31 51.7573 97.995 51.3651 98.5776C50.9729 99.1603 50.4155 99.6144 49.7633 99.8825C49.1111 100.151 48.3934 100.221 47.7011 100.084C47.0087 99.9474 46.3727 99.61 45.8735 99.1145C45.3744 98.619 45.0344 97.9877 44.8967 97.3005C44.759 96.6132 44.8297 95.9009 45.0998 95.2535C45.37 94.6061 45.8274 94.0528 46.4144 93.6635C47.0014 93.2742 47.6915 93.0664 48.3974 93.0664C48.8663 93.0657 49.3308 93.1569 49.7641 93.3347C50.1975 93.5125 50.5912 93.7734 50.9228 94.1025C51.2544 94.4317 51.5173 94.8225 51.6964 95.2527C51.8755 95.6828 51.9674 96.1438 51.9667 96.6093Z" fill="white"/>
<path d="M106.908 117.5V126.705" stroke="#263238" stroke-width="0.804051" stroke-miterlimit="10" stroke-linecap="round"/>
<path d="M118.08 58.7852L119.819 60.0493L121.596 58.7852" stroke="#263238" stroke-width="0.804051" stroke-miterlimit="10" stroke-linecap="round"/>
<path d="M118.08 166.367L119.819 167.631L121.596 166.367" stroke="#263238" stroke-width="0.804051" stroke-miterlimit="10" stroke-linecap="round"/>
<path d="M88.3544 17.109H72.8359C72.481 17.109 72.1408 16.9691 71.8899 16.72C71.639 16.471 71.498 16.1332 71.498 15.781C71.498 15.4289 71.639 15.0911 71.8899 14.8421C72.1408 14.593 72.481 14.4531 72.8359 14.4531H88.3544C88.7092 14.4531 89.0495 14.593 89.3004 14.8421C89.5512 15.0911 89.6922 15.4289 89.6922 15.781C89.6922 16.1332 89.5512 16.471 89.3004 16.72C89.0495 16.9691 88.7092 17.109 88.3544 17.109Z" fill="#595959"/>
<path d="M80.5954 214.705C83.5508 214.705 85.9466 212.327 85.9466 209.394C85.9466 206.46 83.5508 204.082 80.5954 204.082C77.64 204.082 75.2441 206.46 75.2441 209.394C75.2441 212.327 77.64 214.705 80.5954 214.705Z" fill="#595959"/>
</svg>
