<svg width="129" height="129" viewBox="0 0 129 129" fill="none" xmlns="http://www.w3.org/2000/svg">
<circle cx="64.3272" cy="64.3292" r="44.9749" stroke="#F7F8FA" stroke-width="3.21249"/>
<mask id="path-2-inside-1_825_106086" fill="white">
<path d="M42.1845 23.6694C36.8028 26.5774 32.0466 30.517 28.1874 35.2631C24.3282 40.0093 21.4417 45.4691 19.6925 51.3308C17.9434 57.1925 17.3659 63.3413 17.9931 69.4262C18.6203 75.5111 20.4399 81.4129 23.3479 86.7945L26.2166 85.2444C23.5121 80.2395 21.8199 74.7508 21.2366 69.0919C20.6533 63.4329 21.1904 57.7145 22.8171 52.2631C24.4438 46.8117 27.1283 41.7341 30.7173 37.3202C34.3063 32.9063 38.7296 29.2425 43.7346 26.538L42.1845 23.6694Z"/>
</mask>
<path d="M42.1845 23.6694C36.8028 26.5774 32.0466 30.517 28.1874 35.2631C24.3282 40.0093 21.4417 45.4691 19.6925 51.3308C17.9434 57.1925 17.3659 63.3413 17.9931 69.4262C18.6203 75.5111 20.4399 81.4129 23.3479 86.7945L26.2166 85.2444C23.5121 80.2395 21.8199 74.7508 21.2366 69.0919C20.6533 63.4329 21.1904 57.7145 22.8171 52.2631C24.4438 46.8117 27.1283 41.7341 30.7173 37.3202C34.3063 32.9063 38.7296 29.2425 43.7346 26.538L42.1845 23.6694Z" stroke="#73C5FF" stroke-width="3.21249" mask="url(#path-2-inside-1_825_106086)"/>
<mask id="path-3-inside-2_825_106086" fill="white">
<path d="M39.2602 103.589C44.416 106.881 50.1697 109.125 56.1928 110.193C62.2159 111.262 68.3905 111.133 74.364 109.815C80.3374 108.497 85.9928 106.016 91.0072 102.512C96.0215 99.0084 100.297 94.5515 103.589 89.3956L100.84 87.6409C97.7789 92.4358 93.803 96.5808 89.1396 99.8391C84.4762 103.097 79.2167 105.405 73.6614 106.631C68.1061 107.857 62.3638 107.976 56.7623 106.983C51.1608 105.989 45.8098 103.902 41.0149 100.841L39.2602 103.589Z"/>
</mask>
<path d="M39.2602 103.589C44.416 106.881 50.1697 109.125 56.1928 110.193C62.2159 111.262 68.3905 111.133 74.364 109.815C80.3374 108.497 85.9928 106.016 91.0072 102.512C96.0215 99.0084 100.297 94.5515 103.589 89.3956L100.84 87.6409C97.7789 92.4358 93.803 96.5808 89.1396 99.8391C84.4762 103.097 79.2167 105.405 73.6614 106.631C68.1061 107.857 62.3638 107.976 56.7623 106.983C51.1608 105.989 45.8098 103.902 41.0149 100.841L39.2602 103.589Z" stroke="#0B83D9" stroke-width="3.21249" mask="url(#path-3-inside-2_825_106086)"/>
<mask id="path-4-inside-3_825_106086" fill="white">
<path d="M110.775 67.8828C111.242 61.7836 110.503 55.6521 108.6 49.8384C106.697 44.0248 103.668 38.6428 99.6854 33.9999C95.7026 29.357 90.8443 25.544 85.388 22.7786C79.9316 20.0132 73.984 18.3497 67.8847 17.8828L67.6359 21.134C73.3082 21.5681 78.8395 23.1153 83.9139 25.6871C88.9883 28.2589 93.5065 31.805 97.2105 36.1229C100.914 40.4408 103.732 45.446 105.501 50.8527C107.271 56.2594 107.958 61.9617 107.524 67.634L110.775 67.8828Z"/>
</mask>
<path d="M110.775 67.8828C111.242 61.7836 110.503 55.6521 108.6 49.8384C106.697 44.0248 103.668 38.6428 99.6854 33.9999C95.7026 29.357 90.8443 25.544 85.388 22.7786C79.9316 20.0132 73.984 18.3497 67.8847 17.8828L67.6359 21.134C73.3082 21.5681 78.8395 23.1153 83.9139 25.6871C88.9883 28.2589 93.5065 31.805 97.2105 36.1229C100.914 40.4408 103.732 45.446 105.501 50.8527C107.271 56.2594 107.958 61.9617 107.524 67.634L110.775 67.8828Z" stroke="#0B83D9" stroke-width="3.21249" mask="url(#path-4-inside-3_825_106086)"/>
<circle cx="64.3281" cy="64.3262" r="36" fill="#0B83D9"/>
<path d="M61.3281 71.7563L67.505 65.5795C68.2344 64.85 68.2344 63.6563 67.505 62.9268L61.3281 56.75" stroke="#F7F8FA" stroke-width="1.42105" stroke-miterlimit="10" stroke-linecap="round" stroke-linejoin="round"/>
</svg>
