<svg width="372" height="290" viewBox="0 0 372 290" fill="none" xmlns="http://www.w3.org/2000/svg">
<rect width="372" height="126" transform="translate(0 127.559)" fill="#73C5FF"/>
<path d="M317.905 1H225.046C221.874 1 219.303 3.09039 219.303 5.66902V88.8829C219.303 91.4616 221.874 93.5519 225.046 93.5519H317.905C321.077 93.5519 323.648 91.4616 323.648 88.8829V5.66902C323.648 3.09039 321.077 1 317.905 1Z" fill="#F7F8FA" stroke="#2E353A" stroke-width="0.877005" stroke-linecap="round" stroke-linejoin="round"/>
<path d="M225.046 1.00006H317.895C319.411 1.00006 320.864 1.48952 321.936 2.36078C323.008 3.23203 323.61 4.41371 323.61 5.64585V10.493H219.303V5.66908C219.299 5.05508 219.445 4.44655 219.732 3.87869C220.02 3.31083 220.443 2.79489 220.977 2.36072C221.511 1.92655 222.145 1.58275 222.844 1.3492C223.542 1.11565 224.291 0.996981 225.046 1.00006Z" fill="#2E353A" stroke="#2E353A" stroke-width="0.877005" stroke-linecap="round" stroke-linejoin="round"/>
<path d="M224.99 50.416H266.976" stroke="#2E353A" stroke-width="0.877005" stroke-linecap="round" stroke-linejoin="round"/>
<path d="M224.99 54.8203H266.976" stroke="#2E353A" stroke-width="0.877005" stroke-linecap="round" stroke-linejoin="round"/>
<path d="M224.99 59.2266H266.976" stroke="#2E353A" stroke-width="0.877005" stroke-linecap="round" stroke-linejoin="round"/>
<path d="M224.99 63.6328H266.976" stroke="#2E353A" stroke-width="0.877005" stroke-linecap="round" stroke-linejoin="round"/>
<path d="M224.99 68.0391H266.976" stroke="#2E353A" stroke-width="0.877005" stroke-linecap="round" stroke-linejoin="round"/>
<path d="M224.99 72.4531H266.976" stroke="#2E353A" stroke-width="0.877005" stroke-linecap="round" stroke-linejoin="round"/>
<path d="M224.99 76.8574H266.976" stroke="#2E353A" stroke-width="0.877005" stroke-linecap="round" stroke-linejoin="round"/>
<path d="M224.99 81.2637H266.976" stroke="#2E353A" stroke-width="0.877005" stroke-linecap="round" stroke-linejoin="round"/>
<path d="M224.99 85.668H266.976" stroke="#2E353A" stroke-width="0.877005" stroke-linecap="round" stroke-linejoin="round"/>
<path d="M274.357 50.416H316.343" stroke="#2E353A" stroke-width="0.877005" stroke-linecap="round" stroke-linejoin="round"/>
<path d="M274.357 54.8203H316.343" stroke="#2E353A" stroke-width="0.877005" stroke-linecap="round" stroke-linejoin="round"/>
<path d="M274.357 59.2266H316.343" stroke="#2E353A" stroke-width="0.877005" stroke-linecap="round" stroke-linejoin="round"/>
<path d="M274.357 63.6328H316.343" stroke="#2E353A" stroke-width="0.877005" stroke-linecap="round" stroke-linejoin="round"/>
<path d="M274.357 68.0391H316.343" stroke="#2E353A" stroke-width="0.877005" stroke-linecap="round" stroke-linejoin="round"/>
<path d="M274.357 72.4531H316.343" stroke="#2E353A" stroke-width="0.877005" stroke-linecap="round" stroke-linejoin="round"/>
<path d="M274.357 76.8574H316.343" stroke="#2E353A" stroke-width="0.877005" stroke-linecap="round" stroke-linejoin="round"/>
<path d="M274.357 81.2637H316.343" stroke="#2E353A" stroke-width="0.877005" stroke-linecap="round" stroke-linejoin="round"/>
<path d="M274.357 85.668H316.343" stroke="#2E353A" stroke-width="0.877005" stroke-linecap="round" stroke-linejoin="round"/>
<path d="M316.639 13.916H273.434V45.6623H316.639V13.916Z" fill="#0B83D9" stroke="#2E353A" stroke-width="1.75401" stroke-linecap="round" stroke-linejoin="round"/>
<path d="M316.638 27.1875C315.189 27.2546 313.749 27.4177 312.333 27.6753C305.77 28.8368 304.056 36.4946 296.636 36.4946C290.064 36.4946 289.502 29.3013 280.082 28.3722C277.789 28.0787 275.443 28.4167 273.414 29.3323V45.6623H316.638V27.1875Z" fill="#2E353A" stroke="#2E353A" stroke-width="0.877005" stroke-linecap="round" stroke-linejoin="round"/>
<path d="M287.788 21.1795C287.79 21.9612 287.506 22.7257 286.973 23.3763C286.44 24.0269 285.681 24.5342 284.793 24.8341C283.905 25.1339 282.928 25.2128 281.985 25.0606C281.041 24.9085 280.175 24.5323 279.495 23.9795C278.815 23.4268 278.352 22.7224 278.165 21.9557C277.978 21.189 278.075 20.3943 278.444 19.6724C278.813 18.9506 279.437 18.3339 280.237 17.9006C281.037 17.4673 281.978 17.2368 282.939 17.2383C284.225 17.2383 285.458 17.6535 286.368 18.3926C287.277 19.1318 287.788 20.1342 287.788 21.1795Z" fill="#F7F8FA" stroke="#2E353A" stroke-width="0.877005" stroke-linecap="round" stroke-linejoin="round"/>
<path d="M318.611 3.7793H222.438V6.79132H318.611V3.7793Z" fill="#F7F8FA" stroke="#2E353A" stroke-width="0.877005" stroke-linecap="round" stroke-linejoin="round"/>
<path d="M312.61 112.02H270.976C269.339 112.02 267.769 112.548 266.612 113.489C265.454 114.43 264.804 115.706 264.804 117.037V135.14C264.804 136.471 265.454 137.747 266.612 138.688C267.769 139.629 269.339 140.158 270.976 140.158H272.253C270.957 142.48 268.443 146.042 264.471 148.156C264.471 148.156 272.919 147.676 281.72 140.158H312.591C314.228 140.158 315.797 139.629 316.955 138.688C318.112 137.747 318.763 136.471 318.763 135.14V117.037C318.763 115.709 318.115 114.435 316.962 113.495C315.808 112.554 314.243 112.024 312.61 112.02Z" fill="#2E353A" stroke="#2E353A" stroke-width="0.877005" stroke-linecap="round" stroke-linejoin="round"/>
<path d="M284.634 125.445C284.636 124.933 284.451 124.432 284.102 124.006C283.753 123.579 283.256 123.247 282.675 123.05C282.093 122.853 281.453 122.801 280.835 122.901C280.217 123 279.649 123.247 279.203 123.609C278.758 123.971 278.455 124.433 278.332 124.935C278.21 125.437 278.274 125.958 278.515 126.431C278.757 126.904 279.167 127.308 279.691 127.591C280.216 127.875 280.832 128.025 281.462 128.024C282.303 128.022 283.108 127.75 283.702 127.266C284.297 126.783 284.632 126.129 284.634 125.445Z" fill="#0B83D9" stroke="#2E353A" stroke-width="0.877005" stroke-linecap="round" stroke-linejoin="round"/>
<path d="M295.426 125.446C295.426 124.936 295.24 124.437 294.891 124.013C294.543 123.589 294.047 123.259 293.468 123.063C292.888 122.868 292.25 122.817 291.635 122.917C291.02 123.016 290.455 123.262 290.011 123.622C289.567 123.983 289.265 124.442 289.143 124.943C289.021 125.443 289.083 125.961 289.323 126.432C289.564 126.903 289.97 127.306 290.492 127.589C291.013 127.873 291.627 128.024 292.254 128.024C293.094 128.022 293.9 127.75 294.494 127.267C295.088 126.783 295.423 126.129 295.426 125.446Z" fill="#0B83D9" stroke="#2E353A" stroke-width="0.877005" stroke-linecap="round" stroke-linejoin="round"/>
<path d="M306.228 125.445C306.23 124.934 306.045 124.433 305.696 124.007C305.348 123.58 304.852 123.248 304.271 123.051C303.689 122.854 303.049 122.801 302.432 122.9C301.814 122.999 301.246 123.245 300.8 123.606C300.355 123.968 300.051 124.428 299.927 124.93C299.804 125.432 299.866 125.953 300.106 126.426C300.347 126.899 300.755 127.303 301.278 127.587C301.801 127.872 302.417 128.024 303.047 128.024C303.888 128.022 304.694 127.75 305.29 127.267C305.886 126.784 306.223 126.129 306.228 125.445Z" fill="#0B83D9" stroke="#2E353A" stroke-width="0.877005" stroke-linecap="round" stroke-linejoin="round"/>
<path d="M83.6577 11.9805H152.237C153.869 11.9805 155.434 12.5075 156.588 13.4455C157.742 14.3836 158.39 15.6558 158.39 16.9824V55.6277H77.5332V16.9824C77.5332 15.6598 78.1775 14.3911 79.3253 13.4537C80.473 12.5163 82.0308 11.9866 83.6577 11.9805Z" fill="#0B83D9" stroke="#2E353A" stroke-width="0.877005" stroke-linecap="round" stroke-linejoin="round"/>
<path d="M158.352 49.3945H77.5332V55.6044H158.352V49.3945Z" fill="#2E353A" stroke="#2E353A" stroke-width="0.877005" stroke-linecap="round" stroke-linejoin="round"/>
<path d="M154.656 51.5156H81.2383V53.4823H154.656V51.5156Z" fill="#F7F8FA" stroke="#2E353A" stroke-width="0.877005" stroke-linecap="round" stroke-linejoin="round"/>
<path d="M117.948 40.8625C124.114 40.8625 129.112 36.7995 129.112 31.7877C129.112 26.7758 124.114 22.7129 117.948 22.7129C111.783 22.7129 106.785 26.7758 106.785 31.7877C106.785 36.7995 111.783 40.8625 117.948 40.8625Z" fill="#2E353A" stroke="#2E353A" stroke-width="0.877005" stroke-linecap="round" stroke-linejoin="round"/>
<path d="M112.908 26.1426L124.957 31.795L112.908 37.4473V26.1426Z" fill="#F7F8FA" stroke="#2E353A" stroke-width="0.877005" stroke-linecap="round" stroke-linejoin="round"/>
<path d="M123.396 71.5H46.6919C45.2084 71.5 44.0059 72.4776 44.0059 73.6835V97.4468C44.0059 98.6527 45.2084 99.6303 46.6919 99.6303H123.396C124.879 99.6303 126.082 98.6527 126.082 97.4468V73.6835C126.082 72.4776 124.879 71.5 123.396 71.5Z" fill="#2E353A" stroke="#2E353A" stroke-width="0.877005" stroke-linecap="round" stroke-linejoin="round"/>
<path d="M53.7783 75.334L54.1784 75.876C52.3686 76.6967 50.6827 78.1369 50.6827 79.8249C50.6596 80.1149 50.7078 80.4057 50.8247 80.6803C50.9416 80.9549 51.1247 81.2078 51.3633 81.4241C51.6019 81.6404 51.8913 81.8159 52.2144 81.9402C52.5375 82.0644 52.8878 82.135 53.2449 82.1478C53.5116 82.1478 53.6926 82.0394 53.6926 81.8226C53.6926 81.6058 53.5593 81.5361 53.2926 81.4974C52.9329 81.4182 52.6196 81.2377 52.4085 80.9881C52.1974 80.7384 52.1022 80.436 52.14 80.1346C52.147 79.8942 52.214 79.6575 52.337 79.4388C52.4601 79.22 52.6365 79.024 52.8557 78.8625C53.0749 78.7009 53.3322 78.5774 53.612 78.4992C53.8918 78.4211 54.1882 78.39 54.4832 78.408C54.8041 78.4089 55.1215 78.4621 55.4167 78.5644C55.7119 78.6668 55.9788 78.8163 56.2017 79.004C56.4246 79.1916 56.599 79.4138 56.7144 79.6572C56.8299 79.9006 56.8841 80.1604 56.8739 80.4211C56.8693 80.7488 56.7834 81.0724 56.6215 81.3725C56.4596 81.6727 56.2249 81.9432 55.9316 82.1679C55.6382 82.3927 55.2921 82.5671 54.9139 82.6807C54.5358 82.7943 54.1334 82.8448 53.7307 82.8292C53.2301 82.8556 52.7282 82.7961 52.2577 82.6547C51.7871 82.5133 51.3584 82.2932 50.9992 82.0085C50.64 81.7238 50.3584 81.3809 50.1726 81.0021C49.9868 80.6233 49.901 80.2169 49.9207 79.8094C49.8922 77.8505 51.7495 76.2709 53.7783 75.334ZM61.9602 75.334L62.3603 75.876C60.541 76.6967 58.8646 78.1369 58.8646 79.8249C58.8401 80.1151 58.8875 80.4064 59.0039 80.6814C59.1202 80.9565 59.3033 81.2098 59.5421 81.4263C59.781 81.6429 60.0709 81.8183 60.3946 81.9423C60.7183 82.0662 61.0693 82.1361 61.4268 82.1478C61.6935 82.1478 61.8745 82.0394 61.8745 81.8226C61.8745 81.6058 61.7412 81.5361 61.4745 81.4974C61.1148 81.4182 60.8015 81.2377 60.5904 80.9881C60.3793 80.7384 60.2841 80.436 60.3219 80.1346C60.3275 79.8939 60.3936 79.6566 60.5162 79.4373C60.6388 79.2181 60.8152 79.0216 61.0347 78.8598C61.2542 78.6981 61.512 78.5746 61.7924 78.4969C62.0728 78.4192 62.3698 78.3889 62.6651 78.408C62.986 78.4089 63.3034 78.4621 63.5986 78.5644C63.8938 78.6668 64.1607 78.8163 64.3836 79.004C64.6065 79.1916 64.7809 79.4138 64.8963 79.6572C65.0118 79.9006 65.066 80.1604 65.0558 80.4211C65.0498 80.7485 64.9631 81.0716 64.8007 81.3712C64.6384 81.6708 64.4037 81.9409 64.1106 82.1655C63.8175 82.39 63.4719 82.5645 63.0944 82.6785C62.7168 82.7925 62.315 82.8437 61.9126 82.8292C61.4123 82.8543 60.9111 82.794 60.4413 82.6522C59.9714 82.5104 59.5432 82.2902 59.1843 82.0057C58.8255 81.7213 58.5438 81.3789 58.3575 81.0007C58.1712 80.6224 58.0844 80.2166 58.1026 79.8094C58.0645 77.8505 59.9219 76.2709 61.9602 75.334Z" fill="#0B83D9"/>
<path d="M69.791 81.0625H116.501" stroke="#F7F8FA" stroke-width="0.877005" stroke-linecap="round" stroke-linejoin="round"/>
<path d="M69.791 84.3223H116.501" stroke="#F7F8FA" stroke-width="0.877005" stroke-linecap="round" stroke-linejoin="round"/>
<path d="M69.791 87.582H116.501" stroke="#F7F8FA" stroke-width="0.877005" stroke-linecap="round" stroke-linejoin="round"/>
<path d="M69.791 90.8516H116.501" stroke="#F7F8FA" stroke-width="0.877005" stroke-linecap="round" stroke-linejoin="round"/>
<path d="M108.235 143.247C117.876 141.968 124.416 134.578 122.843 126.74C121.269 118.903 112.178 113.586 102.537 114.865C92.8957 116.145 86.3557 123.535 87.9293 131.373C89.503 139.21 98.5943 144.527 108.235 143.247Z" fill="#2E353A" stroke="#2E353A" stroke-width="0.877005" stroke-linecap="round" stroke-linejoin="round"/>
<path d="M116.605 137.08C122.044 132.045 121.432 124.378 115.239 119.957C109.045 115.535 99.6145 116.032 94.1751 121.067C88.7357 126.102 89.3472 133.768 95.5409 138.19C101.735 142.612 111.165 142.115 116.605 137.08Z" fill="#F7F8FA" stroke="#2E353A" stroke-width="0.877005" stroke-linecap="round" stroke-linejoin="round"/>
<path d="M105.395 120.281V129.054H112.691" stroke="#2E353A" stroke-width="1.75401" stroke-linecap="round" stroke-linejoin="round"/>
<path d="M211.248 129.085C211.248 129.085 221.002 146.684 221.002 147.614C221.002 148.543 212.347 152.523 210.699 153.359C209.42 153.975 208.103 154.53 206.752 155.024L207.741 163.177C207.741 163.177 222.641 160.304 228.886 157.432C235.132 154.559 234.912 151.315 233.465 146.499C232.018 141.683 222.394 123.068 222.394 123.068L211.248 129.085Z" fill="#F7F8FA"/>
<mask id="mask0_825_105770" style="mask-type:luminance" maskUnits="userSpaceOnUse" x="206" y="123" width="29" height="41">
<path d="M211.248 129.083C211.248 129.083 221.002 146.683 221.002 147.612C221.002 148.541 212.347 152.521 210.699 153.357C209.42 153.973 208.103 154.529 206.752 155.022L207.741 163.175C207.741 163.175 222.641 160.302 228.886 157.43C235.132 154.557 234.912 151.313 233.465 146.497C232.018 141.681 222.394 123.066 222.394 123.066L211.248 129.083Z" fill="white"/>
</mask>
<g mask="url(#mask0_825_105770)">
<g style="mix-blend-mode:multiply" opacity="0.5">
<path d="M228.859 157.43C235.105 154.557 234.885 151.313 233.438 146.497C231.991 141.681 222.366 123.066 222.366 123.066L220.81 123.903L220.315 124.677C220.315 124.677 229.299 143.322 229.839 149.532C230.206 153.705 220.269 158.909 213.703 161.882C218.575 160.79 225.205 159.11 228.859 157.43Z" fill="#0B83D9"/>
</g>
</g>
<path d="M211.248 129.085C211.248 129.085 221.002 146.684 221.002 147.614C221.002 148.543 212.347 152.523 210.699 153.359C209.42 153.975 208.103 154.53 206.752 155.024L207.741 163.177C207.741 163.177 222.641 160.304 228.886 157.432C235.132 154.559 234.912 151.315 233.465 146.499C232.018 141.683 222.394 123.068 222.394 123.068L211.248 129.085Z" stroke="#2E353A" stroke-width="0.877005" stroke-linecap="round" stroke-linejoin="round"/>
<path d="M140.879 125.197C140.879 125.197 133.764 147.242 133.553 151.136C133.342 155.031 147.684 162.712 148.206 163.177C148.728 163.641 147.391 149.781 147.391 149.781L152.253 129.649L140.879 125.197Z" fill="#F7F8FA"/>
<mask id="mask1_825_105770" style="mask-type:luminance" maskUnits="userSpaceOnUse" x="133" y="125" width="20" height="39">
<path d="M140.881 125.197C140.881 125.197 133.766 147.242 133.555 151.136C133.344 155.031 147.686 162.712 148.208 163.177C148.73 163.641 147.393 149.781 147.393 149.781L152.255 129.649L140.881 125.197Z" fill="white"/>
</mask>
<g mask="url(#mask1_825_105770)">
<g style="mix-blend-mode:multiply" opacity="0.5">
<path d="M144.141 127.001L143.986 126.405L140.881 125.197C140.881 125.197 133.766 147.242 133.555 151.136C133.344 155.031 147.686 162.712 148.208 163.177C148.418 163.362 148.336 161.287 148.162 158.724C143.894 155.666 137.768 151.361 137.053 149.549" fill="#0B83D9"/>
</g>
</g>
<path d="M140.879 125.197C140.879 125.197 133.764 147.242 133.553 151.136C133.342 155.031 147.684 162.712 148.206 163.177C148.728 163.641 147.391 149.781 147.391 149.781L152.253 129.649L140.879 125.197Z" stroke="#2E353A" stroke-width="0.877005" stroke-linecap="round" stroke-linejoin="round"/>
<path d="M174.298 103.053C174.298 103.053 171.551 104.726 166.193 104.911C160.836 105.097 160.58 101.814 153.922 101.814C145.854 101.814 135.734 123.394 135.734 123.394C135.734 123.394 140.771 127.567 145.707 129.325C148.438 130.336 151.309 131.052 154.251 131.454L155.021 145.632H209.363L210.013 131.454L227.001 122.14C227.001 122.14 218.668 109.542 214.62 104.818C210.572 100.095 203.768 101.853 201.689 103.053C199.61 104.253 193.447 104.54 191.176 104.261C188.213 103.707 185.285 103.027 182.403 102.225C182.403 102.225 178.904 99.7623 174.298 103.053Z" fill="#0B83D9" stroke="#2E353A" stroke-width="0.877005" stroke-linecap="round" stroke-linejoin="round"/>
<path d="M154.8 108.057L154.58 131.588" stroke="#2E353A" stroke-width="0.438503" stroke-linecap="round" stroke-linejoin="round"/>
<path d="M156.77 110.191C156.77 110.191 157.539 121.674 160.433 128.07" stroke="#2E353A" stroke-width="0.438503" stroke-linecap="round" stroke-linejoin="round"/>
<path d="M160.936 128.992C161.561 130.553 162.329 132.07 163.234 133.53" stroke="#2E353A" stroke-width="0.438503" stroke-linecap="round" stroke-linejoin="round"/>
<path d="M158.52 108.891C159.559 113.066 161.027 117.157 162.906 121.117" stroke="#2E353A" stroke-width="0.438503" stroke-linecap="round" stroke-linejoin="round"/>
<path d="M205.754 110.928C205.754 110.928 203.126 120.01 200.818 124.091" stroke="#2E353A" stroke-width="0.438503" stroke-linecap="round" stroke-linejoin="round"/>
<path d="M210.012 131.494L209.902 113.15" stroke="#2E353A" stroke-width="0.438503" stroke-linecap="round" stroke-linejoin="round"/>
<path d="M208.813 113.523C208.813 113.523 206.835 125.138 202.018 131.216" stroke="#2E353A" stroke-width="0.438503" stroke-linecap="round" stroke-linejoin="round"/>
<path d="M206.405 128.9C206.405 128.9 204.207 132.423 202.678 134.274" stroke="#2E353A" stroke-width="0.438503" stroke-linecap="round" stroke-linejoin="round"/>
<path d="M171.229 104.447C171.229 104.447 172.767 112.415 174.956 116.488C177.144 120.56 180.982 121.397 184.269 120.197C187.557 118.996 189.965 113.057 189.764 105.485" stroke="#2E353A" stroke-width="0.438503" stroke-linecap="round" stroke-linejoin="round"/>
<path d="M163.455 87.7687C163.455 87.7687 161.367 84.718 159.728 86.2898C158.088 87.8617 161.046 91.4776 162.686 92.6778C164.325 93.878 165.534 93.1424 165.433 91.8493C165.332 90.5562 163.455 87.7687 163.455 87.7687Z" fill="#0B83D9" stroke="#2E353A" stroke-width="0.877005" stroke-linecap="round" stroke-linejoin="round"/>
<path opacity="0.5" d="M163.455 87.7687C163.455 87.7687 161.367 84.718 159.728 86.2898C158.088 87.8617 161.046 91.4776 162.686 92.6778C164.325 93.878 165.534 93.1424 165.433 91.8493C165.332 90.5562 163.455 87.7687 163.455 87.7687Z" fill="#F7F8FA"/>
<path d="M163.455 87.7687C163.455 87.7687 161.367 84.718 159.728 86.2898C158.088 87.8617 161.046 91.4776 162.686 92.6778C164.325 93.878 165.534 93.1424 165.433 91.8493C165.332 90.5562 163.455 87.7687 163.455 87.7687Z" stroke="#2E353A" stroke-width="0.877005" stroke-linecap="round" stroke-linejoin="round"/>
<path d="M196.596 87.7687C196.596 87.7687 198.675 84.718 200.324 86.2898C201.972 87.8617 199.005 91.4776 197.366 92.6778C195.726 93.878 194.508 93.1424 194.618 91.8493C194.728 90.5562 196.596 87.7687 196.596 87.7687Z" fill="#0B83D9" stroke="#2E353A" stroke-width="0.877005" stroke-linecap="round" stroke-linejoin="round"/>
<path opacity="0.5" d="M196.596 87.7687C196.596 87.7687 198.675 84.718 200.324 86.2898C201.972 87.8617 199.005 91.4776 197.366 92.6778C195.726 93.878 194.508 93.1424 194.618 91.8493C194.728 90.5562 196.596 87.7687 196.596 87.7687Z" fill="#F7F8FA"/>
<path d="M196.596 87.7687C196.596 87.7687 198.675 84.718 200.324 86.2898C201.972 87.8617 199.005 91.4776 197.366 92.6778C195.726 93.878 194.508 93.1424 194.618 91.8493C194.728 90.5562 196.596 87.7687 196.596 87.7687Z" stroke="#2E353A" stroke-width="0.877005" stroke-linecap="round" stroke-linejoin="round"/>
<path d="M173.309 102.412C174.343 106.366 175.661 110.263 177.256 114.081C179.234 118.247 182.952 118.247 184.49 115.56C186.029 112.873 187.009 102.861 187.009 102.861C187.009 102.861 176.706 104.077 173.309 102.412Z" fill="#F7F8FA" stroke="#2E353A" stroke-width="0.877005" stroke-linecap="round" stroke-linejoin="round"/>
<path d="M163.674 88.7917C163.674 88.7917 166.523 97.309 171.917 102.319C177.31 107.328 179.243 108.513 182.109 108.149C184.976 107.785 188.025 104.634 192.293 98.0833C196.56 91.5327 196.872 86.5075 197.229 86.0429C197.586 85.5783 196.313 76.3177 190.214 72.3301C184.115 68.3424 177.283 66.5925 171.367 70.9441C165.451 75.2956 161.696 82.396 163.674 88.7917Z" fill="#F7F8FA"/>
<mask id="mask2_825_105770" style="mask-type:luminance" maskUnits="userSpaceOnUse" x="163" y="68" width="35" height="41">
<path d="M163.674 88.7917C163.674 88.7917 166.523 97.309 171.917 102.319C177.31 107.328 179.243 108.513 182.109 108.149C184.976 107.785 188.025 104.634 192.293 98.0833C196.56 91.5327 196.872 86.5075 197.229 86.0429C197.586 85.5783 196.313 76.3177 190.214 72.3301C184.115 68.3424 177.283 66.5925 171.367 70.9441C165.451 75.2956 161.696 82.396 163.674 88.7917Z" fill="white"/>
</mask>
<g mask="url(#mask2_825_105770)">
<g style="mix-blend-mode:multiply" opacity="0.5">
<path d="M190.187 72.3004C184.051 68.3205 177.256 66.5629 171.34 70.9144C165.424 75.266 161.697 82.3973 163.675 88.793C163.675 88.793 164.215 90.4345 165.287 92.6645C165.284 92.379 165.33 92.0947 165.424 91.8205C166.734 88.3129 170.598 81.5223 183.602 84.635C193.932 87.0973 192.669 94.7783 191.707 98.8744L192.266 98.0226C196.542 91.4488 196.845 86.4469 197.202 85.9823C197.559 85.5177 196.323 76.2881 190.187 72.3004Z" fill="#0B83D9"/>
</g>
</g>
<path d="M163.674 88.7917C163.674 88.7917 166.523 97.309 171.917 102.319C177.31 107.328 179.243 108.513 182.109 108.149C184.976 107.785 188.025 104.634 192.293 98.0833C196.56 91.5327 196.872 86.5075 197.229 86.0429C197.586 85.5783 196.313 76.3177 190.214 72.3301C184.115 68.3424 177.283 66.5925 171.367 70.9441C165.451 75.2956 161.696 82.396 163.674 88.7917Z" stroke="#2E353A" stroke-width="0.877005" stroke-linecap="round" stroke-linejoin="round"/>
<path d="M182.081 93.2344C181.741 95.0429 181.557 96.8699 181.531 98.7009C181.641 100.551 182.3 101.109 181.311 101.295C180.322 101.481 179.232 100.18 179.232 100.18" stroke="#2E353A" stroke-width="0.877005" stroke-linecap="round" stroke-linejoin="round"/>
<path d="M171.119 94.7227C171.754 95.1103 172.513 95.3267 173.295 95.3432C174.078 95.3598 174.849 95.1759 175.506 94.8156" stroke="#2E353A" stroke-width="0.877005" stroke-linecap="round" stroke-linejoin="round"/>
<path d="M185.039 94.7227C185.672 95.1097 186.43 95.3256 187.211 95.3422C187.992 95.3588 188.761 95.1752 189.417 94.8156" stroke="#2E353A" stroke-width="0.877005" stroke-linecap="round" stroke-linejoin="round"/>
<path d="M178.115 91.6011C178.115 91.6011 176.027 87.2418 169.131 89.2782" stroke="#2E353A" stroke-width="0.877005" stroke-linecap="round" stroke-linejoin="round"/>
<path d="M183.859 91.0671C183.859 91.0671 185.609 86.8007 191.854 89.3017" stroke="#2E353A" stroke-width="0.877005" stroke-linecap="round" stroke-linejoin="round"/>
<path d="M179.443 95.0381C179.443 97.4229 176.21 99.3509 172.217 99.3509C168.224 99.3509 164.982 97.4229 164.982 95.0381C164.982 92.6532 168.005 91.6621 171.997 91.6621C175.99 91.6621 179.443 92.661 179.443 95.0381Z" stroke="#2E353A" stroke-width="0.877005" stroke-linecap="round" stroke-linejoin="round"/>
<path d="M196.101 95.0381C196.101 97.4229 192.859 99.3509 188.866 99.3509C184.873 99.3509 181.641 97.4229 181.641 95.0381C181.641 92.6532 184.654 91.6621 188.646 91.6621C192.639 91.6621 196.101 92.661 196.101 95.0381Z" stroke="#2E353A" stroke-width="0.877005" stroke-linecap="round" stroke-linejoin="round"/>
<path d="M103.763 169.318L103.314 263.187C103.314 263.482 103.453 263.766 103.701 263.975C103.948 264.184 104.283 264.302 104.633 264.302C104.974 264.302 105.302 264.189 105.546 263.988C105.791 263.787 105.933 263.514 105.943 263.225L109.111 169.45L103.763 169.318Z" fill="#F7F8FA" stroke="#2E353A" stroke-width="0.877005" stroke-linecap="round" stroke-linejoin="round"/>
<path d="M96.2898 191.262L95.8594 288.305C95.8582 288.451 95.8915 288.597 95.9573 288.733C96.0231 288.868 96.1202 288.992 96.2429 289.095C96.3656 289.199 96.5115 289.281 96.672 289.337C96.8326 289.392 97.0046 289.421 97.1781 289.42C97.5186 289.42 97.8459 289.309 98.0917 289.11C98.3375 288.91 98.4827 288.639 98.4969 288.351L101.656 191.386L96.2898 191.262Z" fill="#F7F8FA" stroke="#2E353A" stroke-width="0.877005" stroke-linecap="round" stroke-linejoin="round"/>
<path d="M257.249 169.318L257.698 263.187C257.699 263.333 257.666 263.478 257.601 263.613C257.536 263.748 257.439 263.871 257.318 263.975C257.196 264.078 257.051 264.16 256.892 264.217C256.732 264.273 256.561 264.302 256.388 264.302C256.046 264.302 255.718 264.19 255.472 263.989C255.226 263.788 255.081 263.514 255.07 263.225L251.91 169.45L257.249 169.318Z" fill="#F7F8FA" stroke="#2E353A" stroke-width="0.877005" stroke-linecap="round" stroke-linejoin="round"/>
<path d="M264.731 191.262L265.18 288.305C265.181 288.451 265.148 288.597 265.082 288.733C265.016 288.868 264.919 288.992 264.796 289.095C264.673 289.199 264.528 289.281 264.367 289.337C264.207 289.392 264.035 289.421 263.861 289.42C263.521 289.42 263.195 289.308 262.951 289.109C262.706 288.91 262.563 288.638 262.551 288.351L259.383 191.386L264.731 191.262Z" fill="#F7F8FA" stroke="#2E353A" stroke-width="0.877005" stroke-linecap="round" stroke-linejoin="round"/>
<path d="M148.325 195.295L148.059 281.428C148.03 281.643 148.101 281.859 148.256 282.031C148.412 282.202 148.64 282.317 148.892 282.349C149.139 282.32 149.364 282.213 149.52 282.049C149.677 281.885 149.754 281.677 149.735 281.467L151.722 195.396L148.325 195.295Z" fill="#F7F8FA" stroke="#2E353A" stroke-width="0.877005" stroke-linecap="round" stroke-linejoin="round"/>
<path d="M212.806 192.523L213.053 267.692C213.074 267.874 213.012 268.056 212.879 268.2C212.746 268.344 212.553 268.44 212.339 268.467C212.126 268.44 211.933 268.344 211.802 268.2C211.67 268.055 211.61 267.873 211.634 267.692L209.939 192.585L212.806 192.523Z" fill="#F7F8FA" stroke="#2E353A" stroke-width="0.877005" stroke-linecap="round" stroke-linejoin="round"/>
<path d="M147.327 192.523L147.575 267.692C147.596 267.874 147.533 268.056 147.4 268.2C147.267 268.344 147.074 268.44 146.86 268.467C146.647 268.44 146.455 268.344 146.323 268.2C146.192 268.055 146.131 267.873 146.155 267.692L144.461 192.585L147.327 192.523Z" fill="#F7F8FA" stroke="#2E353A" stroke-width="0.877005" stroke-linecap="round" stroke-linejoin="round"/>
<path d="M210.965 195.295L211.249 281.428C211.278 281.643 211.207 281.859 211.052 282.031C210.897 282.202 210.669 282.317 210.416 282.349C210.17 282.319 209.947 282.211 209.79 282.047C209.634 281.884 209.557 281.676 209.573 281.467L207.586 195.396L210.965 195.295Z" fill="#F7F8FA" stroke="#2E353A" stroke-width="0.877005" stroke-linecap="round" stroke-linejoin="round"/>
<path d="M179.196 201.325C201.703 201.325 219.948 197.8 219.948 193.451C219.948 189.102 201.703 185.576 179.196 185.576C156.689 185.576 138.443 189.102 138.443 193.451C138.443 197.8 156.689 201.325 179.196 201.325Z" fill="#F7F8FA" stroke="#2E353A" stroke-width="0.877005" stroke-linecap="round" stroke-linejoin="round"/>
<path d="M159.352 260.298C159.352 260.298 157.218 262.885 158.748 264.17C160.277 265.455 161.797 264.944 161.642 266.237C161.486 267.53 159.05 271.913 156.916 276.559C154.782 281.204 159.206 285.85 163.327 284.565C167.448 283.28 166.99 270.364 167.594 268.041C168.199 265.718 168.666 265.331 168.51 263.14C168.354 260.949 168.208 258.626 166.221 258.363C164.233 258.099 160.268 259.4 159.352 260.298Z" fill="#F7F8FA" stroke="#2E353A" stroke-width="0.877005" stroke-linecap="round" stroke-linejoin="round"/>
<path d="M165.9 281.004C163.153 280.121 158.94 280.299 156.568 280.5C157.365 283.42 160.415 285.471 163.327 284.566C164.545 284.186 165.342 282.808 165.9 281.004Z" fill="#0B83D9" stroke="#2E353A" stroke-width="0.877005" stroke-linecap="round" stroke-linejoin="round"/>
<path d="M154.627 254.621C154.627 254.621 159.05 260.947 160.268 262.62C161.486 264.292 165.616 263.781 166.074 261.458C166.532 259.135 164.389 252.686 164.389 252.686L155.231 254.621H154.627Z" fill="#F7F8FA" stroke="#2E353A" stroke-width="0.877005" stroke-linecap="round" stroke-linejoin="round"/>
<path d="M144.094 244.556C144.094 244.556 142.867 246.236 143.48 247.398C144.094 248.559 145.77 251.912 146.841 253.592C147.913 255.272 152.794 256.302 158.435 255.528C164.076 254.754 167.291 252.554 167.446 250.619C167.602 248.683 166.531 246.105 165.761 243.007C164.992 239.91 163.014 240.042 160.267 240.042C157.519 240.042 146.383 242.752 144.094 244.556Z" fill="#0B83D9" stroke="#2E353A" stroke-width="0.877005" stroke-linecap="round" stroke-linejoin="round"/>
<path d="M160.578 206.617C160.661 203.442 162.831 201.878 162.996 199.702C163.254 196.826 162.973 193.933 162.163 191.131L157.987 186.307C145.972 186.438 137.363 186.609 137.226 186.647C136.768 186.771 136.457 188.97 136.155 190.774C136.155 190.774 131.054 191.324 131.969 203.326C132.098 204.998 137.244 224.348 137.62 226.555C139.909 240.035 145.01 246.787 145.01 246.787C145.01 246.787 145.468 248.467 151.421 248.08C157.373 247.693 163.326 244.34 163.326 244.34C163.326 244.34 160.267 218.099 160.578 206.617Z" fill="#2E353A" stroke="#2E353A" stroke-width="0.877005" stroke-linecap="round" stroke-linejoin="round"/>
<path d="M135.329 188.808C135.329 188.808 129.019 189.582 125.155 193.314C121.29 197.047 124.568 199.509 132.078 198.843C139.587 198.177 148.251 191.681 148.617 191.332C148.983 190.984 140.787 186.57 135.329 188.808Z" fill="#F7F8FA" stroke="#2E353A" stroke-width="0.877005" stroke-linecap="round" stroke-linejoin="round"/>
<path d="M146.53 191.128C150.55 191.303 154.539 191.822 158.436 192.677C163.628 193.97 172.786 196.548 174.92 196.548C177.053 196.548 176.449 189.835 176.449 188.55C176.449 187.264 148.975 186.482 145.615 186.482C142.254 186.482 146.53 191.128 146.53 191.128Z" fill="#F7F8FA" stroke="#2E353A" stroke-width="0.877005" stroke-linecap="round" stroke-linejoin="round"/>
<path d="M176.448 188.551C176.448 188.551 174.003 189.581 173.087 193.453C172.171 197.324 170.953 199.392 172.785 200.421C174.616 201.451 182.556 202.225 183.774 201.196C184.992 200.166 188.353 195.001 188.967 191.649C189.58 188.296 176.448 188.551 176.448 188.551Z" fill="#0B83D9" stroke="#2E353A" stroke-width="0.877005" stroke-linecap="round" stroke-linejoin="round"/>
<path d="M186.824 189.837C185.405 191.214 184.272 192.785 183.473 194.483C182.825 196.26 182.315 198.07 181.943 199.903C184.865 200.58 187.721 201.445 190.488 202.489C195.378 204.293 203.62 205.586 211.551 207.135C219.481 208.683 221.624 210.232 224.372 210.232C227.119 210.232 230.48 208.42 234.757 204.038C239.033 199.655 235.361 190.356 231.093 187.514C226.826 184.672 203.922 182.357 200.873 183.131C197.823 183.906 186.824 189.837 186.824 189.837Z" fill="#2E353A" stroke="#2E353A" stroke-width="0.877005" stroke-linecap="round" stroke-linejoin="round"/>
<path d="M129.552 198.912C128.949 196.595 127.727 194.426 125.98 192.57C125.696 192.795 125.422 193.027 125.156 193.283C121.759 196.55 123.883 198.873 129.552 198.912Z" fill="#0B83D9" stroke="#2E353A" stroke-width="0.877005" stroke-linecap="round" stroke-linejoin="round"/>
<path d="M160.11 200.955C160.11 200.955 156.96 229.457 150.531 233.894" stroke="#F7F8FA" stroke-width="0.438503" stroke-linecap="round" stroke-linejoin="round"/>
<path d="M157.885 228.01C157.885 228.01 155.385 237.301 148.828 240.995" stroke="#F7F8FA" stroke-width="0.438503" stroke-linecap="round" stroke-linejoin="round"/>
<path d="M198.427 195.775C198.427 195.775 188.656 196.294 195.066 199.902C201.477 203.511 213.08 205.841 213.08 205.841" stroke="#F7F8FA" stroke-width="0.438503" stroke-linecap="round" stroke-linejoin="round"/>
<path d="M269.364 186.012L266.068 183.503L258.448 169.565C258.087 168.931 257.519 168.397 256.812 168.026C256.105 167.654 255.288 167.46 254.455 167.467H106.465C105.631 167.459 104.812 167.652 104.103 168.024C103.394 168.395 102.825 168.93 102.463 169.565L92.9664 186.925L91.4004 186.437V190.41L91.4737 190.363C91.5669 190.893 91.8851 191.376 92.3687 191.722C92.8523 192.069 93.4684 192.254 94.1019 192.245H266.809C267.477 192.258 268.124 192.051 268.614 191.668C269.105 191.285 269.4 190.756 269.438 190.193L269.364 186.012Z" fill="#2E353A" stroke="#2E353A" stroke-width="0.877005" stroke-linecap="round" stroke-linejoin="round"/>
<path d="M266.81 188.614H94.1026C93.6749 188.628 93.2499 188.551 92.8674 188.388C92.4849 188.226 92.1575 187.984 91.9159 187.685C91.6743 187.386 91.5263 187.041 91.4859 186.68C91.4455 186.32 91.514 185.957 91.6849 185.625L102.464 165.935C102.824 165.298 103.392 164.762 104.102 164.39C104.811 164.019 105.631 163.826 106.466 163.836H254.456C255.289 163.828 256.107 164.021 256.815 164.393C257.522 164.764 258.089 165.299 258.449 165.935L269.228 185.625C269.399 185.957 269.467 186.32 269.427 186.68C269.386 187.041 269.238 187.386 268.997 187.685C268.755 187.984 268.428 188.226 268.045 188.388C267.663 188.551 267.238 188.628 266.81 188.614Z" fill="#F7F8FA" stroke="#2E353A" stroke-width="0.877005" stroke-linecap="round" stroke-linejoin="round"/>
<g style="mix-blend-mode:multiply" opacity="0.5">
<path d="M102.848 175.389C102.848 175.389 98.9372 177.658 101.382 178.486C103.827 179.315 131.933 178.695 135.358 177.867C138.783 177.038 142.684 169.396 142.684 168.157C142.684 166.918 137.757 166.028 135.944 165.958C134.131 165.888 110.174 167.119 110.174 167.119L102.848 175.389Z" fill="#0B83D9"/>
</g>
<g style="mix-blend-mode:multiply" opacity="0.5">
<path d="M242.651 179.314C248.185 179.314 252.67 177.74 252.67 175.799C252.67 173.857 248.185 172.283 242.651 172.283C237.118 172.283 232.633 173.857 232.633 175.799C232.633 177.74 237.118 179.314 242.651 179.314Z" fill="#0B83D9"/>
</g>
<g style="mix-blend-mode:multiply" opacity="0.5">
<path d="M178.868 183.658C198.709 183.658 214.794 181.113 214.794 177.974C214.794 174.836 198.709 172.291 178.868 172.291C159.026 172.291 142.941 174.836 142.941 177.974C142.941 181.113 159.026 183.658 178.868 183.658Z" fill="#0B83D9"/>
</g>
<path d="M235.325 161.969C235.325 161.969 234.666 159.747 232.477 160.49C230.288 161.233 230.508 166.142 230.939 168.922C231.369 171.702 234.336 170.401 234.336 170.401V168.736C234.336 168.736 233.246 169.472 232.697 168.458C232.147 167.443 232.257 162.341 232.807 162.434C233.356 162.526 234.446 164.098 234.446 164.098C234.446 164.098 234.776 163.92 235.325 161.969Z" fill="#0B83D9" stroke="#2E353A" stroke-width="0.877005" stroke-linecap="round" stroke-linejoin="round"/>
<path d="M233.75 162.342V174.514C233.75 175.946 237.642 177.108 242.45 177.108C247.258 177.108 251.141 175.946 251.141 174.514V162.342H233.75Z" fill="#0B83D9" stroke="#2E353A" stroke-width="0.877005" stroke-linecap="round" stroke-linejoin="round"/>
<path d="M251.141 162.341C251.141 163.58 247.249 164.579 242.45 164.579C237.651 164.579 233.75 163.58 233.75 162.341C233.75 161.102 237.642 160.104 242.45 160.104C247.258 160.104 251.141 161.11 251.141 162.341Z" fill="#F7F8FA" stroke="#2E353A" stroke-width="0.877005" stroke-linecap="round" stroke-linejoin="round"/>
<path d="M250.004 162.342C250.004 163.418 246.616 164.285 242.449 164.285C238.282 164.285 234.885 163.418 234.885 162.342C234.885 161.266 238.273 160.398 242.449 160.398C246.625 160.398 250.004 161.266 250.004 162.342Z" fill="#F7F8FA" stroke="#2E353A" stroke-width="0.877005" stroke-linecap="round" stroke-linejoin="round"/>
<path d="M236.615 163.579C240.422 164.519 244.467 164.519 248.273 163.579C244.467 162.64 240.422 162.64 236.615 163.579Z" fill="#2E353A" stroke="#2E353A" stroke-width="0.877005" stroke-linecap="round" stroke-linejoin="round"/>
<path d="M101.768 167.901L101.877 172.067L135.075 172.345V167.529L101.768 167.901Z" fill="#F7F8FA" stroke="#2E353A" stroke-width="0.877005" stroke-linecap="round" stroke-linejoin="round"/>
<path d="M135.073 172.345L139.899 163.549V160.955L134.854 168.365L135.073 172.345Z" fill="#F7F8FA" stroke="#2E353A" stroke-width="0.877005" stroke-linecap="round" stroke-linejoin="round"/>
<path d="M101.768 171.694L101.877 175.867L135.075 176.146V171.33L101.768 171.694Z" fill="#F7F8FA" stroke="#2E353A" stroke-width="0.877005" stroke-linecap="round" stroke-linejoin="round"/>
<path d="M135.073 176.148L139.899 167.344V164.75L134.854 172.16L135.073 176.148Z" fill="#F7F8FA" stroke="#2E353A" stroke-width="0.877005" stroke-linecap="round" stroke-linejoin="round"/>
<path d="M114.587 157.34C114.587 157.34 115.356 156.047 114.257 155.49C113.158 154.932 111.958 156.264 111.299 156.69C110.64 157.116 96.8389 164.843 96.3993 166.051C95.9598 167.259 96.3994 169.923 99.3573 170.217C102.315 170.511 104.944 168.831 106.262 168.552C107.581 168.273 108.094 168.18 108.094 168.18L117.188 157.805L114.587 157.34Z" fill="#F7F8FA" stroke="#2E353A" stroke-width="0.877005" stroke-linecap="round" stroke-linejoin="round"/>
<path d="M99.3574 170.224C102.315 170.503 104.944 168.838 106.262 168.559C107.581 168.281 108.094 168.188 108.094 168.188L108.424 167.808L99.8794 166.337C99.4149 165.967 98.8177 165.739 98.1823 165.688C97.547 165.638 96.9099 165.768 96.372 166.058C95.9599 167.251 96.3995 169.938 99.3574 170.224Z" fill="#F7F8FA" stroke="#2E353A" stroke-width="0.877005" stroke-linecap="round" stroke-linejoin="round"/>
<path d="M99.9082 166.353H125.55C133.554 166.353 135.963 165.981 135.963 165.981L140.889 157.363C140.889 157.363 125.321 158.2 120.513 157.921C118.527 157.872 116.548 157.686 114.597 157.363L99.9082 166.353Z" fill="#F7F8FA" stroke="#2E353A" stroke-width="0.877005" stroke-linecap="round" stroke-linejoin="round"/>
<path d="M99.9082 166.352L100.348 168.017C100.348 168.017 121.164 168.11 126.64 168.11C132.116 168.11 136.283 168.296 136.283 168.296L135.953 165.973L99.9082 166.352Z" fill="#F7F8FA" stroke="#2E353A" stroke-width="0.877005" stroke-linecap="round" stroke-linejoin="round"/>
<path d="M136.283 168.273L140.88 159.376V157.34L135.953 165.958L136.283 168.273Z" fill="#F7F8FA" stroke="#2E353A" stroke-width="0.877005" stroke-linecap="round" stroke-linejoin="round"/>
<path d="M210.242 178.677H147.465C147.326 178.678 147.188 178.656 147.059 178.612C146.93 178.568 146.813 178.502 146.714 178.419C146.615 178.337 146.537 178.238 146.483 178.13C146.43 178.021 146.402 177.905 146.402 177.787C146.402 177.669 146.43 177.553 146.483 177.444C146.537 177.336 146.615 177.237 146.714 177.155C146.813 177.072 146.93 177.006 147.059 176.962C147.188 176.918 147.326 176.895 147.465 176.897H210.242C210.38 176.895 210.518 176.918 210.646 176.962C210.774 177.007 210.891 177.072 210.989 177.155C211.087 177.238 211.164 177.336 211.217 177.445C211.269 177.553 211.296 177.67 211.295 177.787C211.296 177.904 211.269 178.02 211.217 178.129C211.164 178.237 211.087 178.336 210.989 178.419C210.891 178.502 210.774 178.567 210.646 178.612C210.518 178.656 210.38 178.678 210.242 178.677Z" fill="#F7F8FA" stroke="#2E353A" stroke-width="0.877005" stroke-linecap="round" stroke-linejoin="round"/>
<path d="M210.773 176.882H146.924C146.691 176.882 146.466 176.807 146.296 176.672C146.125 176.537 146.023 176.351 146.009 176.154L142.538 140.885C142.522 140.776 142.534 140.665 142.573 140.56C142.612 140.455 142.677 140.358 142.764 140.276C142.851 140.194 142.957 140.129 143.076 140.084C143.195 140.039 143.324 140.017 143.454 140.018H214.253C214.383 140.017 214.512 140.039 214.631 140.084C214.75 140.129 214.856 140.194 214.943 140.276C215.029 140.358 215.094 140.455 215.133 140.56C215.172 140.665 215.184 140.776 215.169 140.885L211.698 176.154C211.684 176.353 211.58 176.539 211.408 176.675C211.235 176.81 211.008 176.884 210.773 176.882Z" fill="#F7F8FA" stroke="#2E353A" stroke-width="0.877005" stroke-linecap="round" stroke-linejoin="round"/>
<path d="M184.875 159.058C184.875 161.164 182.174 162.867 178.849 162.867C175.525 162.867 172.814 161.164 172.814 159.058C172.814 156.952 175.516 155.256 178.849 155.256C182.183 155.256 184.875 156.959 184.875 159.058Z" fill="#F7F8FA" stroke="#2E353A" stroke-width="0.877005" stroke-linecap="round" stroke-linejoin="round"/>
<path d="M247.266 131.509C248.245 130.863 248.933 129.953 249.216 128.93C249.422 128.163 249.4 127.365 249.152 126.607" stroke="#2E353A" stroke-width="0.877005" stroke-linecap="round" stroke-linejoin="round"/>
<path d="M239.958 159.12C239.958 159.12 246.048 156.023 244.061 152.484C242.073 148.946 235.352 146.6 235.352 141.087C235.352 136.332 241.332 134.575 245.233 132.67" stroke="#2E353A" stroke-width="0.877005" stroke-linecap="round" stroke-linejoin="round"/>
<path d="M245.581 159.021C245.581 159.021 248.979 157.108 248.979 154.073C248.979 152.037 246.405 150.705 243.008 147.43" stroke="#2E353A" stroke-width="0.877005" stroke-linecap="round" stroke-linejoin="round"/>
<path d="M241.13 145.446C241.13 145.446 238.905 143.967 240.544 141.188" stroke="#2E353A" stroke-width="0.877005" stroke-linecap="round" stroke-linejoin="round"/>
<path d="M189.572 64.3381C190.661 64.1445 192.997 63.3857 194.572 60.2963C194.596 60.2495 194.609 60.1992 194.61 60.1481C194.611 60.0971 194.601 60.0464 194.579 59.9989C194.556 59.9514 194.523 59.9081 194.481 59.8714C194.439 59.8347 194.389 59.8054 194.334 59.7852C194.222 59.7459 194.096 59.7449 193.983 59.7825C193.871 59.8201 193.779 59.8932 193.729 59.9866C192.282 62.8205 190.213 63.4477 189.352 63.587C190.892 62.0108 191.743 60.0336 191.76 57.9889C191.76 52.6152 185.872 48.2637 178.61 48.2637C171.348 48.2637 165.459 52.6152 165.459 57.9889C165.464 59.9512 166.237 61.8569 167.657 63.409C166.274 63.347 163.939 63.8426 160.981 66.7617C160.897 66.8354 160.849 66.9339 160.849 67.0366C160.849 67.1392 160.897 67.2377 160.981 67.3114C161.066 67.3711 161.173 67.4039 161.283 67.4043C161.35 67.4044 161.416 67.3919 161.476 67.3678C161.536 67.3437 161.589 67.3086 161.631 67.265C165.413 63.5406 167.913 64.1678 168.417 64.3381C167.562 64.7358 166.761 65.2109 166.027 65.7551C161.805 68.9684 159.232 75.0467 159.562 80.1106C159.932 83.4692 161.372 86.6801 163.728 89.4022C166.795 87.5467 169.337 85.1405 171.174 82.3561C172.542 80.3108 173.765 78.1983 174.837 76.03C174.837 78.2987 175.185 81.0398 176.595 82.9987C177.612 84.5461 179.103 85.8339 180.91 86.7274C182.718 87.621 184.776 88.0875 186.87 88.0781C187.593 88.0869 188.315 88.0272 189.022 87.9C189.084 87.8869 189.143 87.8629 189.193 87.8295C189.244 87.7962 189.285 87.7543 189.315 87.7065C192.85 88.3414 196.367 88.2872 196.907 87.6523C197.777 86.6379 199.013 83.471 199.426 79.5996C200.176 73.0335 195.286 67.3347 189.572 64.3381ZM177.447 82.5264C175.67 80.0719 175.725 76.0687 175.936 73.7691L176.055 73.5058C176.139 75.871 176.852 78.1898 178.141 80.2902C179.43 82.3906 181.262 84.2188 183.5 85.6391C184.737 86.3617 186.108 86.9036 187.557 87.2419C185.313 87.3735 180.698 87.0096 177.447 82.5264Z" fill="#2E353A"/>
<path d="M177.603 70.3379C177.603 70.3379 176.852 75.0301 183.904 79.6295C190.955 84.2288 197.641 82.417 197.641 82.417" stroke="#F7F8FA" stroke-width="0.438503" stroke-linecap="round" stroke-linejoin="round"/>
<path d="M178.637 68.791C178.637 68.791 186.064 77.9355 196.32 75.5506" stroke="#F7F8FA" stroke-width="0.438503" stroke-linecap="round" stroke-linejoin="round"/>
<path d="M174.965 65.7488C173.794 65.2459 172.482 65.0248 171.172 65.1094C169.863 65.1941 168.606 65.5813 167.538 66.2288C163.591 68.4511 161.613 73.7008 161.613 73.7008" stroke="#F7F8FA" stroke-width="0.438503" stroke-linecap="round" stroke-linejoin="round"/>
<path d="M175.156 68.2948C175.156 68.2948 171.96 67.5747 169.982 69.2472C169.018 69.9858 168.194 70.845 167.537 71.7946" stroke="#F7F8FA" stroke-width="0.438503" stroke-linecap="round" stroke-linejoin="round"/>
</svg>
